<?xml version="1.0" encoding="UTF-8" standalone="no"?>
<!-- Created with Inkscape (http://www.inkscape.org/) -->

<svg
   version="1.1"
   id="svg1"
   width="500"
   height="500"
   viewBox="0 0 500 500"
   sodipodi:docname="brandIcon.svg"
   inkscape:version="1.4 (86a8ad7, 2024-10-11)"
   xmlns:inkscape="http://www.inkscape.org/namespaces/inkscape"
   xmlns:sodipodi="http://sodipodi.sourceforge.net/DTD/sodipodi-0.dtd"
   xmlns="http://www.w3.org/2000/svg"
   xmlns:svg="http://www.w3.org/2000/svg">
  <defs
     id="defs1" />
  <sodipodi:namedview
     id="namedview1"
     pagecolor="#ffffff"
     bordercolor="#000000"
     borderopacity="0.25"
     inkscape:showpageshadow="2"
     inkscape:pageopacity="0.0"
     inkscape:pagecheckerboard="0"
     inkscape:deskcolor="#d1d1d1"
     showgrid="false"
     inkscape:zoom="1.63"
     inkscape:cx="244.47853"
     inkscape:cy="260.42945"
     inkscape:window-width="1920"
     inkscape:window-height="1017"
     inkscape:window-x="-8"
     inkscape:window-y="-8"
     inkscape:window-maximized="1"
     inkscape:current-layer="g1" />
  <g
     inkscape:groupmode="layer"
     inkscape:label="Image"
     id="g1">
    <g
       id="g78"
       transform="translate(-14.110433,-26.380364)">
      <path
         style="fill:#cccccc"
         d="m 86,383 v -6 h 6 6 v -1.06723 -1.06724 l -6,-5.7094 -6,-5.70941 v -3.67631 -3.6763 l 1.085212,-2.38179 1.085213,-2.38178 2.819079,-1.66527 L 93.808584,348 H 102.90429 112 v 6 6 h -5.5 -5.5 v 0.88131 0.88131 l 3.52295,2.68709 3.52296,2.68709 2.47663,2.67094 2.47663,2.67093 0.59575,3.17561 0.59575,3.1756 -1.34534,2.79773 -1.34533,2.79773 -3.39788,2.28733 L 104.70423,389 H 95.352117 86 Z m 34,-8.43664 v -14.43664 l -3.25,-0.31336 -3.25,-0.31336 -0.2999,-5.75 -0.29991,-5.75 h 21.00784 21.00784 l 0.29207,7.75 0.29206,7.75 h 1 1 l 0.29206,-7.75 0.29207,-7.75 H 165.04206 172 v 8.53212 8.53212 l -1.45844,3.49054 -1.45844,3.49054 -3.03524,1.72734 -3.03523,1.72734 -0.006,6.75 L 163,389 h -6.5 -6.5 v -7.02475 -7.02475 l -2.4477,-0.93062 -2.4477,-0.93061 -1.64235,-2.50654 -1.64234,-2.50653 -0.54163,-4.0381 L 140.73666,360 H 137.36833 134 v 14.5 14.5 h -7 -7 z m 60.88148,12.93355 -2.61853,-1.42301 -1.63147,-3.43808 L 175,379.19774 V 363.59887 348 h 7 7 v 13.89301 13.89301 l 1.58179,0.60699 L 192.16357,377 H 195.58179 199 v 6 6 l -7.75,-0.04 -7.75,-0.04 z m 30.45621,-0.61647 -4.16232,-2.01988 -2.72134,-3.92689 -2.72134,-3.9269 -0.73207,-4.00339 -0.73207,-4.00338 0.75123,-4.10816 0.75123,-4.10817 1.9292,-2.58395 1.9292,-2.58395 3.50039,-2.8331 3.50038,-2.8331 4.93491,-0.58261 4.93491,-0.58261 4.25713,1.14829 4.25713,1.14829 3.49374,3.49374 3.49374,3.49374 1.49913,3.58792 1.49913,3.58792 v 4.22059 4.22059 l -2.307,4.40729 -2.30701,4.40728 -4.80601,3.25 -4.80601,3.25 -5.63698,-0.0498 L 215.5,388.9004 Z M 219,385.5 V 385 h -0.5 -0.5 v 0.5 0.5 h 0.5 0.5 z m 4,0 V 385 h -0.5 -0.5 v 0.5 0.5 h 0.5 0.5 z M 218.18333,380.78333 217,379.6 v 1.03333 1.03334 l 0.66667,0.66666 0.66666,0.66667 0.51667,-0.51667 0.51667,-0.51666 z M 224,380.88197 v -1 l -1,0.61803 -1,0.61803 v 1 1 l 1,-0.61803 1,-0.61803 z M 213.66667,380.33333 213,379.66667 V 381 v 1.33333 l 0.66667,-0.66666 L 214.33333,381 Z M 228.5,381 l 0.61803,-1 H 228.05902 227 v 1 1 h 0.44098 0.44099 z M 210,380.5 V 380 h -0.5 -0.5 v 0.5 0.5 h 0.5 0.5 z m 9,-3.44098 v -0.94099 L 218,375.5 217,374.88197 V 376.44098 378 h 1 1 z m 6,-0.64235 v -1.58334 l -1.1875,0.39584 -1.1875,0.39583 -0.39583,1.1875 L 221.83333,378 H 223.41667 225 Z m 5,-0.52366 V 375 h -1.5 -1.5 v 1.46862 1.46861 l 1.5,-0.5756 1.5,-0.57561 z M 214,376 v -1 h -1 -1 v 1 1 h 1 1 z m 19.5,0 0.61803,-1 H 233.05902 232 v 1 1 h 0.44098 0.44099 z M 209,375.5 V 375 h -0.5 -0.5 v 0.5 0.5 h 0.5 0.5 z m 5,-3.44098 v -0.94099 l -1.06653,-0.65915 -1.06653,-0.65915 -0.53361,0.5336 -0.5336,0.53361 0.65915,1.06653 L 212.11803,373 H 213.05902 214 Z M 219,371.5 V 370 h -1 -1 v 1.5 1.5 h 1 1 z m 6,0 V 370 h -1.5 -1.5 v 1.5 1.5 h 1.5 1.5 z m 5,0 V 370 h -1 -1 v 1.5 1.5 h 1 1 z M 207.66667,370.33333 207,369.66667 V 371 v 1.33333 l 0.66667,-0.66666 L 208.33333,371 Z m 26,0 L 233,369.66667 V 371 v 1.33333 l 0.66667,-0.66666 L 234.33333,371 Z M 204,370.5 V 370 h -0.5 -0.5 v 0.5 0.5 h 0.5 0.5 z M 203.66667,366.33333 203,365.66667 V 367 v 1.33333 l 0.66667,-0.66666 L 204.33333,367 Z m 4,0 L 207,365.66667 V 367 v 1.33333 l 0.66667,-0.66666 L 208.33333,367 Z M 213.5,367 l 0.61803,-1 H 212.55902 211 v 1 1 h 0.94098 0.94099 z m 5.5,-0.5 V 365 h -1 -1 v 1.5 1.5 h 1 1 z m 6,0 V 365 h -1.5 -1.5 v 1.5 1.5 h 1.5 1.5 z m 5,0.5 v -1 h -1 -1 v 1 1 h 1 1 z m 3.66667,-0.66667 L 233,365.66667 V 367 v 1.33333 l 0.66667,-0.66666 L 234.33333,367 Z M 238,366.5 V 366 h -0.5 -0.5 v 0.5 0.5 h 0.5 0.5 z M 208.66667,361.33333 208,360.66667 V 362 v 1.33333 l 0.66667,-0.66666 L 209.33333,362 Z M 213.5,362 l 0.61803,-1 H 213.05902 212 v 1 1 h 0.44098 0.44099 z m 16.5,0 v -1 h -1.55902 -1.55901 l 0.61803,1 0.61803,1 H 229.05902 230 Z m 4,0.55902 v -0.44099 L 233,361.5 232,360.88197 V 361.94098 363 h 1 1 z M 219,361 v -1 h -1 -1 v 1 1 h 1 1 z m 5.5,0 -0.61803,-1 H 222.94098 222 v 1 1 h 1.55902 1.55901 z M 213.66667,356.33333 213,355.66667 V 357 v 1.33333 l 0.66667,-0.66666 L 214.33333,357 Z M 229,357.55902 v -0.44099 L 228,356.5 227,355.88197 V 356.94098 358 h 1 1 z M 218.66667,356.33333 218,355.66667 217.33333,356.33333 216.66667,357 H 218 h 1.33333 z m 5,0 L 223,355.66667 222.33333,356.33333 221.66667,357 H 223 224.33333 Z M 219,352.5 V 352 h -0.5 -0.5 v 0.5 0.5 h 0.5 0.5 z m 4,0 V 352 h -0.5 -0.5 v 0.5 0.5 h 0.5 0.5 z m 26.18358,33.75 0.31642,-2.75 9.23479,-0.28732 9.23479,-0.28733 1.11809,-2.08917 1.11809,-2.08917 -1.02323,-2.24574 -1.02322,-2.24574 -4.82966,-2.31075 -4.82965,-2.31076 -3.60688,-2.35518 -3.60687,-2.35518 -1.14313,-2.50889 L 249,359.90589 V 358 356.09411 l 1.19469,-2.62205 1.19468,-2.62205 2.75566,-1.42501 2.75565,-1.425 H 265.45034 274 v 2.5 2.5 h -7.38922 -7.38921 l -2.23782,1.81207 -2.23782,1.81208 0.70097,2.20854 0.70096,2.20855 5.12625,2.59766 5.12626,2.59767 3.65669,2.41989 3.65669,2.41988 1.14313,2.50889 1.14312,2.50888 v 2.05181 2.05182 l -1.54819,3.26257 -1.54819,3.26258 -2.49886,1.13855 L 267.90589,389 h -9.51937 -9.51936 z M 279,373.38615 v -15.61384 l 2.09426,-3.72623 2.09425,-3.72622 2.81004,-1.65993 2.81003,-1.65993 3.84571,0.004 3.84571,0.004 3.20145,1.95204 3.20145,1.95203 1.65987,3.20983 1.65986,3.20983 -0.47345,4.9273 -0.47345,4.9273 -3.08981,3.08981 -3.08981,3.08981 -6.04805,0.43747 L 287,374.24038 V 371.12019 368 h 4.5 4.5 l 2,-2 2,-2 v -3.5 -3.5 l -2,-2 -2,-2 h -3.42742 -3.42742 l -2.07258,2.63486 L 285,358.26972 V 373.63486 389 h -3 -3 z M 310,368.5 V 348 h 3 3 v 8.5 8.5 h 8.5 8.5 v -8.5 -8.5 h 3 3 v 20.5 20.5 h -3 -3 v -9 -9 h -8.5 -8.5 v 9 9 h -3 -3 z m 44.90033,18.50904 -3.59966,-1.90257 -3.09578,-3.5259 -3.09579,-3.5259 -1.04897,-3.77734 -1.04898,-3.77733 v -2 -2 l 1.04898,-3.77733 1.04897,-3.77734 3.10077,-3.53158 3.10077,-3.53158 3.80484,-1.94108 L 358.92032,348 H 364.46016 370 v 2.40616 2.40616 l -5.25,0.71109 -5.25,0.71109 -2.6617,1.36277 -2.66171,1.36277 -2.08829,2.65484 -2.0883,2.65484 v 1.32893 1.32893 l 9.75,0.28621 9.75,0.28621 v 2.5 2.5 l -9.75,0.28621 -9.75,0.28621 0.004,1.21379 0.004,1.21379 1.94275,3.18618 1.94275,3.18618 2.30351,1.28295 2.30351,1.28296 5.5,0.53087 5.5,0.53086 0.31642,2.75 0.31642,2.75 -5.81642,-0.0442 -5.81642,-0.0442 z m 19.12163,-13.25904 0.022,-15.25 1.85119,-4.07586 1.85118,-4.07586 3.76842,-1.78824 3.76843,-1.78823 4.48007,0.50497 4.48008,0.50497 2.98748,2.98748 2.98748,2.98748 0.49408,4.38342 0.49407,4.38341 -2.02786,2.48823 -2.02786,2.48823 2.17466,2.32997 2.17466,2.32996 0.35262,8.42004 0.35261,8.42003 h -2.98977 -2.98977 l -0.39535,-6.99679 -0.39536,-6.9968 -1.64282,-1.64282 -1.64282,-1.64283 -5.07467,-0.48761 L 382,370.74554 v -2.24394 -2.24394 l 4.96408,-0.65851 4.96409,-0.65851 1.53591,-2.19282 L 395,360.55499 V 358.77749 357 l -2,-2 -2,-2 h -3.42742 -3.42742 l -2.07258,2.63486 L 380,358.26972 V 373.63486 389 h -3 -3 z m 42.87837,13.25904 -3.59966,-1.90257 -3.09578,-3.5259 -3.09579,-3.5259 -1.04897,-3.77734 -1.04898,-3.77733 v -2 -2 l 1.04898,-3.77733 1.04897,-3.77734 3.10077,-3.53158 3.10077,-3.53158 3.80484,-1.94108 L 420.92032,348 H 426.46016 432 v 2.40616 2.40616 l -5.25,0.71109 -5.25,0.71109 -2.6617,1.36277 -2.66171,1.36277 -2.08829,2.65484 -2.0883,2.65484 v 1.32893 1.32893 l 9.75,0.28621 9.75,0.28621 v 2.5 2.5 l -9.75,0.28621 -9.75,0.28621 0.004,1.21379 0.004,1.21379 1.94275,3.18618 1.94275,3.18618 2.30351,1.28295 2.30351,1.28296 5.5,0.53087 5.5,0.53086 0.31642,2.75 0.31642,2.75 -5.81642,-0.0442 -5.81642,-0.0442 z M 81,342 v -1 h 178 178 v 1 1 H 259 81 Z m 95,-9.69349 -2.5,-0.42113 -7.5,-1.48845 -7.5,-1.48845 -10.74918,-4.35022 -10.74918,-4.35023 -7.25082,-4.58586 -7.25082,-4.58585 -2.5,-1.99593 -2.5,-1.99592 35.75,-0.0222 L 189,307 v 13 13 l -5.25,-0.13618 -5.25,-0.13618 z M 194,216.21978 V 99.144506 l 5.75,0.478983 5.75,0.478981 6.25,1.062 6.25,1.06199 v 113.83977 113.83976 l -3.75,1.04833 -3.75,1.04833 -8.25,0.6462 -8.25,0.6462 z m 117.24584,0.23997 0.25416,-116.828487 6,0.247568 6,0.247569 6,1.1868 6,1.1868 0.25424,113.63022 0.25424,113.63021 -4.2798,1.07767 -4.2798,1.07767 -8.22861,0.68624 -8.2286,0.68624 z M 223,216.5 V 104 h 1.12602 1.12601 l 9.12399,3.6461 9.12398,3.6461 2.25,1.46891 2.25,1.46891 V 216.5857 318.94138 l -5.75,2.64971 -5.75,2.64972 -6.27283,2.37959 L 223.95434,329 H 223.47717 223 Z M 340.55692,328.22358 340,327.66667 V 215.83333 104 h 1.12602 1.12601 l 9.12399,3.6461 9.12398,3.6461 2.25,1.46891 2.25,1.46891 v 102.44002 102.44002 l -5.75,2.56654 -5.75,2.56654 -6.19308,2.26868 -6.19309,2.26868 z M 252,216 v -99 h 0.62301 0.62301 l 6.37435,4.54864 6.37435,4.54864 5.50264,5.07504 5.50264,5.07503 v 80.03536 80.03537 l -4.75,4.43419 -4.75,4.43419 -6.39913,4.90677 L 254.70174,315 H 253.35087 252 Z m 117,0.55902 v -98.44099 l 0.87844,-0.5429 0.87843,-0.5429 6.87157,5.08408 6.87156,5.08409 4.75,4.61221 4.75,4.61221 v 80.1846 80.18461 l -6.75,5.90289 -6.75,5.90288 -4.447,3.2001 L 371.60599,315 H 370.303 369 Z M 105.99002,296.25 100.82006,290.5 96.410031,284.37301 92,278.24602 V 277.62301 277 H 140.5 189 V 289.5 302 H 150.07999 111.15997 Z M 282,216 v -73 h 0.52243 0.52243 l 5.54765,8.51084 5.54765,8.51085 3.467,7.50387 3.467,7.50386 1.86346,6.23529 1.86347,6.23529 1.34946,5.5 1.34945,5.5 v 18 18 l -1.3286,5.5 -1.3286,5.5 -3.09321,9 -3.0932,9 -3.91778,7.5 -3.91777,7.5 -3.94282,5.25 -3.94281,5.25 H 282.46761 282 Z m 117,0 v -73 h 0.41222 0.41222 l 4.67119,6.54608 4.67119,6.54608 4.84103,10.20392 4.84103,10.20392 2.69773,9.5 2.69772,9.5 0.48667,17.03926 0.48666,17.03925 -1.71741,8.42025 -1.7174,8.42025 -2.5188,7.5405 -2.51879,7.54049 -2.98847,6 -2.98848,6 -5.08449,7.75 -5.0845,7.75 H 399.79966 399 Z M 86.153951,267.25 83.279112,261.5 81.139556,255.24602 79,248.99204 V 248.49602 248 h 55 55 V 260.5 273 H 139.0144 89.02879 Z M 76.172852,236.6347 75,230.26941 v -6.14296 -6.14296 l 56.75,0.25825 56.75,0.25826 0.28078,12.25 0.28078,12.25 H 133.20363 77.345704 Z m -1.076855,-29.8847 0.096,-7.25 1.160957,-5 1.160957,-5 55.743039,-0.2584 L 189,188.98321 V 201.4916 214 H 132 75 Z M 79,183.87398 v -1.12601 L 82.646101,173.62398 86.292202,164.5 87.761111,162.25 89.23002,160 H 139.11501 189 V 172.5 185 H 134 79 Z M 92.626006,153.75 l 0.744039,-1.25 3.949916,-5.5 3.949919,-5.5 5.0809,-5.25 5.0809,-5.25 H 150.21584 189 v 12 12 H 140.44098 91.881966 Z M 118,125.55053 v -0.44948 l 6.25,-4.44019 6.25,-4.44019 7.07592,-3.58963 7.07593,-3.58962 6.71465,-2.52739 6.71465,-2.52739 8.70943,-1.91285 8.70942,-1.91285 6.5,-0.330472 6.5,-0.330468 0.27903,13.25 0.27902,13.25 H 153.52903 118 Z"
         id="path84" />
      <path
         style="fill:#b2b2b2"
         d="M 86,383.09371 V 377 h 6 6 v -1.37954 -1.37954 L 93.484485,370.5408 88.968969,366.84067 87.484485,363.97 86,361.09932 v -3.03388 -3.03389 L 88.916361,351.76578 91.832723,348.5 101.91636,348.15629 112,347.81259 v 6.0937 V 360 h -5.5 -5.5 v 0.80927 0.80928 l 5.46914,4.72171 5.46915,4.72172 1.14924,3.83584 1.14925,3.83585 -1.36839,2.79323 -1.36839,2.79323 -2.82041,2.08994 -2.82041,2.08993 -9.92959,0.34371 L 86,389.18741 Z M 120,374.5 V 360 h -3 -3 v -6 -6 h 13 13 v 6 6 h -3 -3 v 14.5 14.5 h -7 -7 z m 30,7.53518 v -6.96481 l -2.25,-1.15223 -2.25,-1.15222 -1.72776,-2.13296 L 142.04447,368.5 142.02224,358.25 142,348 h 6.5 6.5 v 8 8 h 1.5 1.5 v -8 -8 h 7 7 l -0.006,7.75 -0.006,7.75 -1.0617,3.82342 -1.0617,3.82342 -3.43273,2.02535 L 163,375.19755 V 382.09878 389 h -6.5 -6.5 z m 30.51368,4.79692 -2.75604,-2.1679 -1.37882,-3.29998 L 175,378.06424 V 363.03212 348 h 6.97254 6.97255 l 0.27745,14.25 0.27746,14.25 4.75,0.30479 4.75,0.30479 V 383.05479 389 h -7.86514 -7.86514 z m 31.08138,-0.0986 -3.90493,-2.2335 -3.09507,-3.84282 L 201.5,376.81436 V 369 361.18564 l 3.10602,-3.84282 3.10603,-3.84282 3.39397,-2 3.39398,-2 h 6.5 6.5 l 4.19386,3 4.19387,3 2.27701,4 2.27702,4 -0.0221,5.5 -0.0221,5.5 -1.7955,3.3874 -1.7955,3.38739 -2.6428,2.44927 -2.64281,2.44927 -3.38259,1.41333 L 224.75575,389 220.12788,388.98355 215.5,388.9671 Z M 223.5,386 l 0.61803,-1 H 223.05902 222 v 1 1 h 0.44098 0.44099 z M 215,385.5 V 385 h -0.5 -0.5 v 0.5 0.5 h 0.5 0.5 z m 4,0 V 385 h -0.5 -0.5 v 0.5 0.5 h 0.5 0.5 z m 8,0 V 385 h -0.5 -0.5 v 0.5 0.5 h 0.5 0.5 z m -8,-4 V 380 h -1 -1 v 1.5 1.5 h 1 1 z m 5,0 V 380 h -1 -1 v 1.5 1.5 h 1 1 z m -9.5,-0.5 -0.61803,-1 h -1 -1 l 0.61803,1 0.61803,1 h 1 1 z m 14,0 0.61803,-1 H 228.05902 227 v 1 1 h 0.44098 0.44099 z M 210,380.5 V 380 h -0.5 -0.5 v 0.5 0.5 h 0.5 0.5 z m 22,0 V 380 h -0.5 -0.5 v 0.5 0.5 h 0.5 0.5 z M 213.60417,375.27083 213,374.66667 l -0.60014,0.60013 -0.60013,0.60014 0.78322,1.26727 0.78322,1.26728 0.42108,-1.26324 0.42108,-1.26325 z M 219,376.5 V 375 h -1 -1 v 1.5 1.5 h 1 1 z m 6,0 V 375 h -1.5 -1.5 v 1.5 1.5 h 1.5 1.5 z m 4.77083,-0.3125 L 230.16667,375 H 228.58333 227 v 1.58333 1.58334 l 1.1875,-0.39584 1.1875,-0.39583 z M 209,376 v -1 h -1.05902 -1.05901 l 0.61803,1 0.61803,1 H 208.55902 209 Z m 25,0 v -1 h -1 -1 v 1 1 h 1 1 z m 3,-0.5 V 375 h -0.5 -0.5 v 0.5 0.5 h 0.5 0.5 z m -23,-4 V 370 h -1.5 -1.5 v 1.5 1.5 h 1.5 1.5 z m 5,0 V 370 h -1.5 -1.5 v 1.5 1.5 h 1.5 1.5 z m 6,0 V 370 h -1.5 -1.5 v 1.5 1.5 h 1.5 1.5 z m 5,-0.0833 v -1.58334 l -1.1875,0.39584 -1.1875,0.39583 -0.39583,1.1875 L 226.83333,373 H 228.41667 230 Z M 203.66667,370.33333 203,369.66667 V 371 v 1.33333 l 0.66667,-0.66666 L 204.33333,371 Z M 209,371 v -1 h -1 -1 v 1 1 h 1 1 z m 26,0 v -1 h -1 -1 v 1 1 h 1 1 z m 2.66667,-0.66667 L 237,369.66667 V 371 v 1.33333 l 0.66667,-0.66666 L 238.33333,371 Z m -34,-4 L 203,365.66667 V 367 v 1.33333 l 0.66667,-0.66666 L 204.33333,367 Z M 209,367 v -1 h -1 -1 v 1 1 h 1 1 z m 5,-0.5 V 365 h -1.5 -1.5 v 1.5 1.5 h 1.5 1.5 z m 5,-0.0833 v -1.58334 l -1.1875,0.39584 -1.1875,0.39583 -0.39583,1.1875 L 215.83333,368 H 217.41667 219 Z m 6,0.0833 V 365 h -1.5 -1.5 v 1.5 1.5 h 1.5 1.5 z m 5,0 V 365 h -0.94098 -0.94099 l -0.53183,0.86052 -0.53183,0.86052 0.63948,0.63948 L 228.33333,368 H 229.16667 230 Z m 5,0.5 v -1 h -1 -1 v 1 1 h 1 1 z m 2.66667,-0.66667 L 237,365.66667 V 367 v 1.33333 l 0.66667,-0.66666 L 238.33333,367 Z M 205,363.5 V 363 h -0.5 -0.5 v 0.5 0.5 h 0.5 0.5 z m 4,-1.5 v -1 h -0.44098 -0.44099 l -0.61803,1 -0.61803,1 H 207.94098 209 Z m 5,0 v -1 h -1 -1 v 1 1 h 1 1 z m 5,-0.5 V 360 h -1 -1 v 1.5 1.5 h 1 1 z m 6,0 V 360 h -1.5 -1.5 v 1.5 1.5 h 1.5 1.5 z m 5,0.60699 v -0.89301 l -1.5,-0.57561 -1.5,-0.5756 V 361.53138 363 h 1.5 1.5 z M 234,362 v -1 h -1 -1 v 1 1 h 1 1 z m -24,-3.5 V 358 h -0.5 -0.5 v 0.5 0.5 h 0.5 0.5 z m 23,0.059 v -0.44099 l -1.15451,-0.71352 -1.15451,-0.71353 0.71353,1.15451 L 232.11803,359 H 232.55902 233 Z M 214.5,357 l 0.61803,-1 h -1 -1 l -0.61803,1 -0.61803,1 h 1 1 z m 4.5,0 v -1 h -1 -1 v 1 1 h 1 1 z m 5,0 v -1 h -1 -1 v 1 1 h 1 1 z m 5,0.55902 v -0.44099 L 228,356.5 227,355.88197 V 356.94098 358 h 1 1 z M 218.66667,351.33333 218,350.66667 V 352 v 1.33333 l 0.66667,-0.66666 L 219.33333,352 Z m 4,0 L 222,350.66667 V 352 v 1.33333 l 0.66667,-0.66666 L 223.33333,352 Z M 227,352.5 V 352 h -0.5 -0.5 v 0.5 0.5 h 0.5 0.5 z m 22,34 V 384 h 8.38922 8.38921 l 2.34064,-1.89533 2.34063,-1.89533 -0.9884,-2.85467 -0.9884,-2.85467 -6.79395,-3.57523 -6.79395,-3.57523 -2.67477,-2.67477 L 249.54545,362 v -4.10234 -4.10233 L 252.7885,350.89766 256.03155,348 H 265.01578 274 v 2.5 2.5 h -7.92857 -7.92857 l -1.57143,1.57143 L 255,356.14286 v 1.77358 1.77358 l 1.75,1.5427 1.75,1.5427 6,3.01206 6,3.01205 2.5,2.6808 2.5,2.6808 v 4.50146 4.50147 l -3.26578,2.91797 L 268.96845,389 H 258.98422 249 Z m 30.00155,-12.75 0.002,-15.25 1.74844,-3.48007 1.74845,-3.48006 3.39788,-2.26994 L 289.29577,347 h 2.95098 2.95099 l 3.51919,1.66996 3.51919,1.66997 1.8782,3.08003 1.8782,3.08004 v 4 4 l -2.01815,3.31018 -2.01816,3.31017 -3.44599,1.43983 L 295.06424,374 H 291.03212 287 v -3 -3 h 4.5 4.5 l 2,-2 2,-2 v -3.27749 -3.2775 l -1.5567,-2.2225 -1.55671,-2.22251 -3.69329,0.0153 -3.6933,0.0153 -1.1003,0.73468 -1.10029,0.73469 -1.14971,2.18426 L 285,358.86852 V 373.93426 389 h -3 -3 z M 310,368.5 V 348 h 3 3 v 8.5 8.5 h 8.5 8.5 v -8.5 -8.5 h 3 3 v 20.5 20.5 h -3 -3 v -9.5 -9.5 h -8.5 -8.5 v 9.5 9.5 h -3 -3 z m 45.01986,18.25 -4.40393,-2.25 -2.79475,-3.51762 -2.79476,-3.51761 -0.88778,-4.75207 -0.88779,-4.75208 0.91827,-4.30548 0.91827,-4.30548 3.13557,-3.80398 3.13556,-3.80398 4.07074,-1.84889 4.07074,-1.84889 4.75,-0.022 L 369,348 v 2.5 2.5 l -3.25,0.022 -3.25,0.022 -4.0786,1.85241 -4.0786,1.85241 -2.1714,2.76049 L 350,362.26972 V 363.63486 365 h 9.5 9.5 v 2.5 2.5 h -9.5 -9.5 v 2.4652 2.46521 l 3.08227,3.5105 3.08226,3.51051 3.66774,1.01871 3.66773,1.01872 2.75,0.006 L 369,384 v 2.5 2.5 h -4.78811 -4.78811 z m 19.1441,-14.04735 0.33604,-16.29734 1.80433,-2.7504 1.80434,-2.75039 3.19566,-1.94852 3.19567,-1.94852 2.78212,-0.004 2.78212,-0.004 3.44598,1.43982 3.44599,1.43983 2.07442,3.31017 2.07441,3.31018 -0.46777,3.82762 -0.46778,3.82761 -1.81393,2.00437 -1.81393,2.00438 1.68982,0.94567 1.68982,0.94567 1.03379,3.72234 1.03379,3.72234 0.006,5.75 L 402,389 h -3 -3 v -6.54545 -6.54546 L 393.54545,373.45455 391.09091,371 H 386.54545 382 v -2.36995 -2.36995 l 4.54058,-0.51178 4.54058,-0.51179 1.95942,-1.77325 L 395,361.69002 v -2.1225 -2.12251 l -1.5567,-2.2225 -1.55671,-2.22251 -3.69329,0.0153 -3.6933,0.0153 -1.1003,0.73468 -1.10029,0.73469 -1.14971,2.18426 L 380,358.86852 V 373.93426 389 h -3.08604 -3.08604 z m 42.8559,14.04735 -4.40393,-2.25 -2.79475,-3.51762 -2.79476,-3.51761 -0.88778,-4.75207 -0.88779,-4.75208 0.91827,-4.30548 0.91827,-4.30548 3.13557,-3.80398 3.13556,-3.80398 4.07074,-1.84889 4.07074,-1.84889 4.75,-0.022 L 431,348 v 2.5 2.5 l -3.25,0.022 -3.25,0.022 -4.0786,1.85241 -4.0786,1.85241 -2.1714,2.76049 L 412,362.26972 V 363.63486 365 h 9.5 9.5 v 2.5 2.5 h -9.5 -9.5 v 2.4652 2.46521 l 3.08227,3.5105 3.08226,3.51051 3.66774,1.01871 3.66773,1.01872 2.75,0.006 L 431,384 v 2.5 2.5 h -4.78811 -4.78811 z M 81,342 v -1 h 178 178 v 1 1 H 259 81 Z m 93.95518,-10.09946 -6.54481,-0.84646 -8.95519,-2.58888 -8.95518,-2.58888 -9.12261,-4.31439 -9.1226,-4.31439 -6.06538,-4.11891 -6.06538,-4.11892 L 119.503,308.00485 118.88197,307 H 153.94098 189 v 13 13 l -3.75,-0.1265 -3.75,-0.12649 z M 194,216.35026 V 99.700515 l 8.75,0.644455 8.75,0.64446 3,0.8272 3,0.82721 0.25425,113.60934 0.25424,113.60935 -1.79588,0.56999 -1.79589,0.56999 -7.45836,0.96787 -7.45836,0.96787 -2.75,0.0309 L 194,333 Z m 117,0.12276 V 99.713041 l 8.75,0.661779 8.75,0.66178 3,0.80362 3,0.80362 0.25425,113.6063 0.25424,113.6063 -5.25424,1.02713 -5.25425,1.02713 -6.75,0.66115 -6.75,0.66114 z M 223,216 V 104 h 0.4404 0.44041 l 7.30959,2.62277 7.3096,2.62277 4,2.01156 4,2.01157 0.73469,1.11566 0.73468,1.11567 0.0153,101.2647 0.0153,101.2647 -3.25,1.99416 -3.25,1.99417 -7.71774,2.99113 L 226.06452,328 H 224.53226 223 Z m 117,0.66667 V 105.33333 l 0.60669,-0.60668 0.60668,-0.60669 7.14332,2.56401 7.14331,2.56401 4.75,2.39286 4.75,2.39285 V 216.03154 318.0294 l -3.25,1.99416 -3.25,1.99417 -7.71774,2.99113 L 343.06452,328 H 341.53226 340 Z M 252.74019,216.5 l 0.24019,-98.5 0.62938,-0.16155 0.62937,-0.16154 6.15178,4.5532 6.15177,4.5532 5.22866,4.70101 5.22866,4.70102 v 79.8137 79.81369 l -7.0701,6.54583 -7.07011,6.54584 -4.60134,3.0478 L 253.65711,315 H 253.07856 252.5 Z M 370,215.92092 v -99.07907 l 5.50141,3.90274 5.50141,3.90274 6.49859,5.74091 6.49859,5.74091 v 79.8143 79.81429 l -6.8811,6.49129 -6.88111,6.49128 -4.54907,3.12985 L 371.13965,315 H 370.56982 370 Z M 106.57613,296.25 101.10228,290.5 97.051138,285.06939 93,279.63879 V 278.31939 277 h 48 48 v 12.5 12.5 h -38.47501 -38.475 z M 282.03596,216.62756 282,143.75511 l 1.46446,1.21539 1.46445,1.21539 3.60731,5.43464 3.60731,5.43464 3.81739,7.72241 3.8174,7.72242 2.06384,6 2.06384,6 1.797,7.5 1.797,7.5 -0.0936,17.5 -0.0936,17.5 -2.55405,9.57377 -2.55406,9.57377 -3.0952,7.435 -3.09519,7.43499 -4.44606,7.49123 -4.44605,7.49124 -2.52509,3 -2.52509,3 z M 399,216.55902 V 144 h 0.79966 0.79966 l 5.32877,8.07736 5.32877,8.07736 3.91802,8.87868 3.91802,8.87867 2.62385,9.79397 2.62385,9.79396 0.0797,18 0.0797,18 -1.80891,7.45643 -1.80892,7.45642 -2.02849,6.04358 -2.0285,6.04357 -3.96901,7.88795 -3.96901,7.88796 -3.93873,5.80003 -3.93872,5.80003 -1.00486,0.62103 L 399,289.11803 Z M 87.761111,269.75 86.292202,267.5 82.646101,258.37602 79,249.25203 V 248.62602 248 h 55 55 v 12 12 H 139.11501 89.23002 Z m -10.246777,-28 -0.422896,-1.25 -1.045719,-5.93366 L 75,228.63268 V 223.81634 219 h 57 57 v 12 12 H 133.46862 77.93723 Z m -2.169363,-36.5 0.644456,-8.75 0.827119,-3 0.827119,-3 55.678165,-0.2584 L 189,189.98321 V 201.9916 214 H 131.85026 74.700515 Z m 4.416977,-20.82139 -0.588441,-0.58844 2.269147,-6.67008 2.269148,-6.67009 2.660945,-5.25 2.660945,-5.25 h 50.013928 50.01394 l -0.28078,12.25 -0.28078,12.25 -54.07481,0.25853 -54.074801,0.25853 z m 15.982642,-34.93002 3.902743,-5.50141 5.740907,-6.49859 L 111.12915,131 H 150.06458 189 v 12 12 H 140.42092 91.841846 Z M 119,125.20034 v -0.79966 l 7.75,-5.0845 7.75,-5.08449 6.03296,-3.02068 6.03295,-3.02067 6.46705,-2.12727 6.46704,-2.12727 6.5,-1.52312 6.5,-1.52313 8.25,-0.59331 8.25,-0.593304 V 112.85147 126 h -35 -35 z"
         id="path83" />
      <path
         style="fill:#919191"
         d="m 86,383 v -6 h 6 6 v -1.40688 -1.40688 l -4.873317,-4.08017 -4.873317,-4.08018 -1.282628,-3.09653 -1.282628,-3.09654 0.905945,-3.63278 L 87.5,352.56727 90.897883,350.28363 94.295766,348 h 8.902024 8.90202 l -0.29991,5.75 -0.2999,5.75 -5.25,0.30226 -5.25,0.30226 v 0.75701 0.75702 l 5.45918,4.71311 5.45917,4.71311 1.01991,3.69379 1.0199,3.69379 -1.72908,3.53382 L 110.5,385.5 l -3.5,1.74845 -3.5,1.74844 -8.75,0.002 L 86,389 Z m 34,-8.5 V 360 h -3 -3 v -6 -6 h 13 13 v 6 6 h -3 -3 v 14.5 14.5 h -7 -7 z m 30,7.95994 v -6.54005 l -4,-3.80511 -4,-3.80511 V 358.15484 348 h 6.5 6.5 v 8 8 h 1.5 1.5 v -8 -8 h 6.5 6.5 l -0.0318,10.25 -0.0318,10.25 -1.21819,1.57514 -1.2182,1.57514 -2.75,1.78987 -2.75,1.78987 V 382.11501 389 h -6.5 -6.5 z m 32.0964,5.27532 L 179.6928,386.5 177.5964,383.67743 175.5,380.85487 175.14723,364.42743 174.79446,348 h 7.07531 7.07532 l 0.27745,14.25 0.27746,14.25 4.75,0.30479 4.75,0.30479 V 383.05479 389 l -7.25,-0.0147 -7.25,-0.0147 z m 30.4036,-0.6253 -4,-1.84612 -2.20227,-2.39557 -2.20227,-2.39556 -1.54773,-3.70424 -1.54773,-3.70423 0.022,-4.28212 0.022,-4.28212 1.90153,-4.1883 1.90152,-4.1883 4.15905,-3.0128 4.15906,-3.01281 4.23856,-0.63561 4.23856,-0.63561 4.19203,1.12879 4.19203,1.1288 3.53795,3.10636 3.53796,3.10637 1.61042,3.10155 1.61042,3.10156 v 5.5 5.5 l -1.57223,3 -1.57223,3 -2.83927,2.69695 -2.83928,2.69695 -3.71788,1.55305 -3.71788,1.55305 -3.78212,-0.022 -3.78212,-0.022 z m 7,-1.10996 0.61803,-1 H 219.05902 218 v 1 1 h 0.44098 0.44099 z m 4,0 0.61803,-1 H 223.05902 222 v 1 1 h 0.44098 0.44099 z M 214.66667,384.33333 214,383.66667 V 385 v 1.33333 l 0.66667,-0.66666 L 215.33333,385 Z M 227.5,385 l 0.61803,-1 H 227.05902 226 v 1 1 h 0.44098 0.44099 z m -7.72917,-3.1875 -0.39583,-1.1875 -1.1875,-0.39583 L 217,379.83333 V 381.41667 383 h 1.58333 1.58334 z m 4.5908,-0.3125 0.5756,-1.5 H 223.46862 222 v 1.5 1.5 h 0.89301 0.89301 z M 215,381 v -1 h -1.55902 -1.55901 l 0.61803,1 0.61803,1 H 214.05902 215 Z m 14,0 v -1 h -0.94098 -0.94099 l -0.61803,1 -0.61803,1 H 227.44098 229 Z M 209.66667,379.33333 209,378.66667 V 380 v 1.33333 l 0.66667,-0.66666 L 210.33333,380 Z M 232.5,380 l 0.61803,-1 h -0.5 -0.5 l -0.61803,1 -0.61803,1 h 0.5 0.5 z M 214,376.5 V 375 h -1.46862 -1.46861 l 0.5756,1.5 0.57561,1.5 H 213.10699 214 Z m 6,0 V 375 h -2 -2 v 0.83333 0.83334 l 0.66667,0.66666 L 217.33333,378 H 218.66667 220 Z m 5,0 V 375 h -1.5 -1.5 v 1.5 1.5 h 1.5 1.5 z m 4.77083,-0.3125 L 230.16667,375 H 228.58333 227 v 1.58333 1.58334 l 1.1875,-0.39584 1.1875,-0.39583 z M 209,376 v -1 h -1.05902 -1.05901 l 0.61803,1 0.61803,1 H 208.55902 209 Z m 25,0 v -1 h -1 -1 v 1 1 h 1 1 z m -29,-0.5 V 375 h -0.5 -0.5 v 0.5 0.5 h 0.5 0.5 z m 32,0 V 375 h -0.5 -0.5 v 0.5 0.5 h 0.5 0.5 z m -23,-4 V 370 h -1.5 -1.5 v 1.5 1.5 h 1.5 1.5 z m 6,0 V 370 h -2 -2 v 1.5 1.5 h 2 2 z m 5,0 V 370 h -1.5 -1.5 v 1.5 1.5 h 1.5 1.5 z m 5,0 V 370 h -1.5 -1.5 v 1.5 1.5 h 1.5 1.5 z M 203.66667,370.33333 203,369.66667 V 371 v 1.33333 l 0.66667,-0.66666 L 204.33333,371 Z M 209,371 v -1 h -1 -1 v 1 1 h 1 1 z m 26,0 v -1 h -1 -1 v 1 1 h 1 1 z m 2.66667,-0.66667 L 237,369.66667 V 371 v 1.33333 l 0.66667,-0.66666 L 238.33333,371 Z m -34,-4 L 203,365.66667 V 367 v 1.33333 l 0.66667,-0.66666 L 204.33333,367 Z M 209,366.44098 v -1.55901 l -1,0.61803 -1,0.61803 V 367.05902 368 h 1 1 z m 5,0.059 V 365 h -1.5 -1.5 v 1.5 1.5 h 1.5 1.5 z m 6,0 V 365 h -2 -2 v 1.5 1.5 h 2 2 z m 5,0 V 365 h -1.5 -1.5 v 1.5 1.5 h 1.5 1.5 z m 5,0 V 365 h -1.5 -1.5 v 1.5 1.5 h 1.5 1.5 z m 5,0.55902 v -0.94099 L 234,365.5 233,364.88197 V 366.44098 368 h 1 1 z m 2.66667,-0.72569 L 237,365.66667 V 367 v 1.33333 l 0.66667,-0.66666 L 238.33333,367 Z M 205,363.5 V 363 h -0.5 -0.5 v 0.5 0.5 h 0.5 0.5 z m 33,0 V 363 h -0.5 -0.5 v 0.5 0.5 h 0.5 0.5 z M 209,362 v -1 h -1 -1 v 1 1 h 1 1 z m 5,-0.5 V 360 h -0.89301 -0.89301 l -0.57561,1.5 -0.5756,1.5 H 212.53138 214 Z m 5.54112,0.43347 0.65915,-1.06653 -0.55701,-0.55701 -0.557,-0.55701 -1.60651,0.61648 -1.60651,0.61647 0.62239,1.00707 0.6224,1.00706 H 218 218.88197 Z M 225,361.5 V 360 h -1.5 -1.5 v 1.5 1.5 h 1.5 1.5 z m 4.77083,0.3125 -0.39583,-1.1875 -1.1875,-0.39583 L 227,359.83333 V 361.41667 363 h 1.58333 1.58334 z M 234,362 v -1 h -1 -1 v 1 1 h 1 1 z M 209.66667,357.33333 209,356.66667 V 358 v 1.33333 l 0.66667,-0.66666 L 210.33333,358 Z M 233,358.55902 v -0.44099 L 232,357.5 231,356.88197 V 357.94098 359 h 1 1 z M 215,357 v -1 h -0.94098 -0.94099 l -0.61803,1 -0.61803,1 H 213.44098 215 Z m 4.15,-0.5 v -0.95 l -1.075,-0.35833 -1.075,-0.35834 v 1.66667 1.66667 l 1.075,-0.35834 1.075,-0.35833 z m 4.85,0 V 355 h -1 -1 v 1.5 1.5 h 1 1 z m 5,0.5 v -1 h -1.55902 -1.55901 l 0.61803,1 0.61803,1 H 228.05902 229 Z M 214.66667,352.33333 214,351.66667 V 353 v 1.33333 l 0.66667,-0.66666 L 215.33333,353 Z M 228,353.55902 v -0.44099 L 227,352.5 226,351.88197 V 352.94098 354 h 1 1 z M 220,352 v -1 h -1 -1 v 1 1 h 1 1 z m 4,0.55902 v -0.44099 L 223,351.5 222,350.88197 V 351.94098 353 h 1 1 z m 25,34.032 V 384 h 8.92857 8.92857 l 1.57143,-1.57143 L 270,380.85714 v -2.27358 -2.27358 l -1.75,-1.51302 -1.75,-1.51302 -6.31373,-3.31526 -6.31374,-3.31527 -1.93626,-2.46156 L 250,361.73028 v -3.80937 -3.80938 l 2.41224,-2.80577 2.41225,-2.80576 9.58775,-0.34653 L 274,347.80694 V 350.40347 353 h -7.80887 -7.80887 l -1.7861,1.30603 -1.7861,1.30603 0.34497,2.42823 0.34497,2.42823 3,1.84735 3,1.84735 5.5,3.16839 5.5,3.16839 1.72908,3.53383 1.72908,3.53382 -0.98469,3.56627 -0.98469,3.56626 -2.09669,1.89991 L 269.7954,388.5 259.3977,388.84102 249,389.18205 Z m 30,-11.1482 v -13.55718 l 1.12223,-4.45678 1.12223,-4.45677 2.90721,-2.44625 2.9072,-2.44626 3.43769,-0.64491 3.43768,-0.64492 4.43991,2.14933 4.43992,2.14932 1.59296,3.35693 1.59297,3.35693 v 2.63099 2.63099 l -1.39437,3.33719 -1.39436,3.33718 -2.32814,1.6307 L 298.55499,373 H 292.77749 287 v -2.5 -2.5 h 4.84501 4.84501 l 1.75499,-1.93924 1.75499,-1.93924 V 360.5 356.87848 l -1.6736,-1.8493 -1.67359,-1.84931 -2.43504,-0.61115 -2.43503,-0.61116 -2.87019,1.48424 -2.87019,1.48423 -0.62118,1.61877 L 285,358.16357 V 373.58179 389 h -3 -3 z M 310,368.5 V 348 h 2.5 2.5 v 8.5 8.5 h 9 9 v -8.5 -8.5 h 3 3 v 20.5 20.5 h -3 -3 v -9.53893 -9.53894 l -8.75,0.28894 -8.75,0.28893 -0.28753,9.25 -0.28752,9.25 H 312.46247 310 Z m 47.5,19.29345 -3,-1.04866 -3.25923,-2.43033 -3.25923,-2.43032 -1.99077,-3.90223 -1.99077,-3.90223 0.0165,-5.78984 0.0164,-5.78984 2.24204,-3.95841 2.24203,-3.95841 4.08693,-2.8724 4.08693,-2.8724 6.15458,-0.55808 L 369,347.72222 V 350.36111 353 h -3.53212 -3.53212 l -3.21788,1.37684 -3.21788,1.37684 -2.60341,2.87316 -2.60341,2.87316 -0.6152,1.75 -0.61521,1.75 H 359.03138 369 v 2.46379 2.46379 l -9.75,0.28621 -9.75,0.28621 0.30694,2 0.30695,2 1.75484,2.43821 1.75485,2.43821 2.61372,1.95143 2.61372,1.95142 5.07449,0.48759 5.07449,0.4876 V 386.62723 389 l -4.25,-0.079 -4.25,-0.0789 z m 16.6729,-14.54345 0.38247,-15.75 1.47231,-2.91007 1.47232,-2.91006 2.82519,-2.08994 2.82518,-2.08993 4.95004,0.0736 4.95003,0.0736 2.72478,2.01702 2.72478,2.01701 1.4221,4.02279 1.42209,4.02279 -2.14571,4.33687 -2.14571,4.33687 1.97361,1.83871 1.97362,1.8387 v 8.461 V 389 h -2.5 -2.5 v -7 -7 l -2,-2 -2,-2 h -5 -5 v -2.5 -2.5 h 3.56574 3.56574 l 2.18426,-1.1497 2.18426,-1.14971 0.73469,-1.10029 0.73468,-1.1003 0.0153,-2.59501 0.0153,-2.59501 -1.75,-1.50299 -1.75,-1.50299 -1.72182,-0.6098 -1.72183,-0.60981 -3.04928,1.06299 -3.04929,1.06299 -0.97889,1.82907 L 380,357.86852 V 373.43426 389 h -3.10478 -3.10478 z m 45.3271,14.54345 -3,-1.04866 -3.25923,-2.43033 -3.25923,-2.43032 -1.99077,-3.90223 -1.99077,-3.90223 0.0165,-5.78984 0.0164,-5.78984 2.24204,-3.95841 2.24203,-3.95841 4.08693,-2.8724 4.08693,-2.8724 6.15458,-0.55808 L 431,347.72222 V 350.36111 353 h -3.53212 -3.53212 l -3.21788,1.37684 -3.21788,1.37684 -2.60341,2.87316 -2.60341,2.87316 -0.6152,1.75 -0.61521,1.75 H 421.03138 431 v 2.46379 2.46379 l -9.75,0.28621 -9.75,0.28621 0.30694,2 0.30695,2 1.75484,2.43821 1.75485,2.43821 2.61372,1.95143 2.61372,1.95142 5.07449,0.48759 5.07449,0.4876 V 386.62723 389 l -4.25,-0.079 -4.25,-0.0789 z M 82,342 v -1 H 259.5 437 v 1 1 H 259.5 82 Z m 94.17627,-10.07427 -6.32372,-0.82067 -8.04186,-2.03361 -8.04185,-2.03361 -7.91105,-3.42028 -7.91105,-3.42028 -6.72337,-4.0848 -6.72337,-4.08479 -3,-2.47788 -3,-2.47788 35.25,-0.036 L 189,307 v 13 13 l -3.25,-0.1268 -3.25,-0.12681 z M 194,216.57959 V 100 l 5.25,0.10794 5.25,0.10793 6.5,1.14207 6.5,1.14206 0.25425,113.67822 0.25424,113.67822 -5.25424,1.0084 -5.25425,1.00839 -6.75,0.64298 -6.75,0.64298 z M 311.69822,332.36488 311,331.66667 V 215.83333 100 l 3.75,0.008 3.75,0.008 6.5,1.03035 6.5,1.03036 1.75,0.52948 1.75,0.52948 v 113.3242 113.3242 l -2.25,0.53665 -2.25,0.53664 -5,0.60926 -5,0.60925 -4.05178,0.49406 -4.05179,0.49406 z M 223,216.63847 V 105.11803 l 0.80636,-0.49835 0.80636,-0.49836 9.89021,3.98003 9.89021,3.98004 1.30811,1.08563 1.3081,1.08563 -0.25467,102.56851 -0.25468,102.56852 -8.50458,3.6718 -8.50459,3.6718 -3.24541,0.71282 L 223,328.15891 Z m 118,-0.21793 V 104.84109 l 3.25,0.70513 3.25,0.70512 7,3.05328 7,3.05327 1.25,0.9435 1.25,0.9435 v 102.43258 102.43259 l -5.75,2.56458 -5.75,2.56458 -5.40655,1.88039 L 341.6869,328 H 341.34345 341 Z m -88,0.19447 V 118 h 0.81939 0.8194 l 5.22501,3.89838 5.225,3.89838 5.9556,5.50376 5.9556,5.50376 v 79.38202 79.38202 l -5.25,5.04717 -5.25,5.04718 -4,3.01589 -4,3.01589 -2.75,1.76778 -2.75,1.76779 z m 117,0 V 118 h 0.62301 0.62301 l 6.12699,4.43753 6.12699,4.43753 5.25,4.90654 5.25,4.90654 v 79.50371 79.50371 l -5.75,5.44413 -5.75,5.44414 -3.5,2.57575 -3.5,2.57575 -2.75,1.74734 -2.75,1.74735 z M 106.38877,295.76172 100.43801,289.5 96.719004,284.36602 93,279.23205 v -1.12572 -1.12572 l 47.75,0.25969 47.75,0.2597 v 12 12 l -38.08024,0.26172 -38.08023,0.26172 z M 282,216.27778 v -72.72222 l 1.95643,1.97222 1.95642,1.97222 4.95615,8.26414 4.95614,8.26414 3.18973,7.66209 3.18974,7.66209 2.40146,9.46682 2.40145,9.46683 0.63962,11.19884 0.63961,11.19884 -1.2463,9.9014 -1.24629,9.90139 -2.34096,8.07816 -2.34096,8.07816 -3.51344,7.70974 -3.51344,7.70974 -5.52025,8.46881 L 283.04486,289 H 282.52243 282 Z m 117.03755,-0.0278 0.0375,-72.75 3.43241,4 3.43241,4 5.44772,10.5 5.44771,10.5 2.55424,8 2.55425,8 1.52808,8.88099 1.52809,8.88099 v 9.29665 9.29665 l -1.07242,7.71039 -1.07241,7.71038 -2.49406,8.60648 -2.49406,8.60647 -3.79048,8.08868 -3.79049,8.08868 -5.17351,7.66682 L 399.93905,289 H 399.46953 399 Z M 86.384705,266.77248 83.735718,261.54495 81.867859,256.11593 80,250.6869 V 249.34345 248 h 54.5 54.5 v 12 12 H 139.01685 89.033692 Z M 77.075299,239.25 76.07351,235.5 75.392979,227.25 74.712448,219 H 131.85622 189 v 12 12 H 133.53854 78.077088 Z m -1.724149,-33.5 0.646204,-8.25 1.048327,-3.75 1.048327,-3.75 H 133.547 189 v 12 12 H 131.85247 74.704945 Z m 6.038538,-28 2.372502,-6.25 2.568017,-5.75936 2.568018,-5.75937 49.800885,0.25937 L 188.5,160.5 l 0.28174,11.75 0.28173,11.75 H 134.04033 79.017186 Z M 93,154.1438 v -0.8562 l 3.670932,-4.8938 3.670928,-4.8938 5.41363,-6.25 5.41363,-6.25 H 150.08456 189 v 12 12 H 141 93 Z m 29.5,-31.64489 4,-3.44269 9,-4.97799 9,-4.978 9.00438,-3.00216 9.00438,-3.00217 8.87661,-1.54795 L 180.26198,100 h 4.39889 4.39888 l -0.27987,12.75 -0.27988,12.75 -35,0.2208 -35,0.2208 z"
         id="path82" />
      <path
         style="fill:#6f6f6f"
         d="m 86,383 v -6 h 5.940983 5.940983 l 0.566366,-0.9164 0.566365,-0.9164 -5.502312,-4.70077 -5.502313,-4.70077 -1.173713,-3.91751 -1.173712,-3.9175 1.67886,-3.52061 1.67886,-3.5206 3.457698,-1.44472 L 95.935763,348 H 103.96788 112 v 5.5 5.5 l -4.75,0.0153 -4.75,0.0153 -1.38284,0.8758 -1.382832,0.8758 2.882832,2.35888 2.88284,2.35889 3.75,3.79211 3.75,3.7921 v 4.32304 4.32303 l -2.04549,2.60042 -2.04548,2.60041 -3.70452,1.02887 -3.70451,1.02887 -7.75,0.006 L 86,389 Z m 35,-8.5 V 360 h -3.5 -3.5 v -6 -6 h 13 13 v 6 6 h -3.5 -3.5 v 14.5 14.5 h -6 -6 z m 29,7 V 374 h -1.41111 -1.4111 l -2.5889,-3.07673 L 142,367.84655 V 357.92327 348 h 6.5 6.5 v 8.07332 8.07333 l 1.75,-0.33417 1.75,-0.33417 0.29206,-7.73915 L 159.08413,348 H 165.04206 171 v 9.92327 9.92328 l -2.58889,3.07672 L 165.82221,374 H 164.41111 163 v 7.5 7.5 h -6.5 -6.5 z m 31.31382,5.54977 -3.18618,-1.94275 -1.06382,-1.98777 L 176,381.13148 V 364.56574 348 h 6 6 v 13.3 13.3 l 1.2,1.2 1.2,1.2 h 4.3 4.3 v 6 6 l -7.25,-0.004 -7.25,-0.004 z m 33.37116,0.93337 -2.81503,-0.84495 -3.3326,-2.54191 -3.33261,-2.5419 -2.22114,-4.58825 -2.22113,-4.58826 0.45394,-5.47399 0.45395,-5.47399 2.91482,-4.12589 2.91482,-4.12588 4,-2.08906 4,-2.08906 5.52807,0.0313 5.52808,0.0313 3.74333,2.3135 3.74334,2.31351 2.62943,3.44737 2.62944,3.44736 0.47098,4.90166 0.47099,4.90166 -0.67115,3.57757 -0.67116,3.57756 -3.1921,3.6356 -3.1921,3.6356 -4.00857,1.82106 -4.00858,1.82106 -3.5,-0.064 -3.5,-0.064 z M 220,386 v -1 h -1.55902 -1.55901 l 0.61803,1 0.61803,1 H 219.05902 220 Z m 3.5,0 0.61803,-1 H 223.05902 222 v 1 1 h 0.44098 0.44099 z m -7.5,-0.44098 v -0.44099 L 215,384.5 214,383.88197 V 384.94098 386 h 1 1 z M 227.5,385 l 0.61803,-1 H 227.05902 226 v 1 1 h 0.44098 0.44099 z M 220,381.5 V 380 h -1.5 -1.5 v 1.5 1.5 h 1.5 1.5 z m 4.36163,0 0.5756,-1.5 H 223.46862 222 v 1.5 1.5 h 0.89301 0.89301 z M 215,381 v -1 h -1.55902 -1.55901 l 0.61803,1 0.61803,1 H 214.05902 215 Z m 14,0 v -1 h -1.5 -1.5 v 1 1 h 1.5 1.5 z M 209.66667,379.33333 209,378.66667 V 380 v 1.33333 l 0.66667,-0.66666 L 210.33333,380 Z M 233,380 v -1 h -1 -1 v 1 1 h 1 1 z m -19,-3.5 V 375 h -1.5 -1.5 v 0.83333 0.83334 l 0.66667,0.66666 L 212.33333,378 H 213.16667 214 Z m 6,0 V 375 h -2 -2 v 1.5 1.5 h 2 2 z m 5,0 V 375 h -1.5 -1.5 v 1.5 1.5 h 1.5 1.5 z m 5,0 V 375 h -1.5 -1.5 v 1.5 1.5 h 1.5 1.5 z M 209,376 v -1 h -1 -1 v 1 1 h 1 1 z m 25,0 v -1 h -1 -1 v 1 1 h 1 1 z M 204.66667,374.33333 204,373.66667 V 375 v 1.33333 l 0.66667,-0.66666 L 205.33333,375 Z M 237.5,375 l 0.61803,-1 h -0.5 -0.5 l -0.61803,1 -0.61803,1 h 0.5 0.5 z M 209,371.5 V 370 h -1.5 -1.5 v 0.83333 0.83334 l 0.66667,0.66666 L 207.33333,373 H 208.16667 209 Z m 5,0 V 370 h -1.5 -1.5 v 1.5 1.5 h 1.5 1.5 z m 6,0 V 370 h -2 -2 v 1.5 1.5 h 2 2 z m 5,0 V 370 h -1.5 -1.5 v 1.5 1.5 h 1.5 1.5 z m 5.75047,-0.25 0.4162,-1.25 H 229.08333 227 v 1.57332 1.57333 l 1.66713,-0.32333 1.66714,-0.32332 z M 235,370.94098 V 370 h -1.5 -1.5 v 0.83333 0.83334 l 0.63948,0.63948 0.63948,0.63948 0.86052,-0.53183 L 235,371.88197 Z M 203.66667,370.33333 203,369.66667 V 371 v 1.33333 l 0.66667,-0.66666 L 204.33333,371 Z m 34,0 L 237,369.66667 V 371 v 1.33333 l 0.66667,-0.66666 L 238.33333,371 Z m -34,-4 L 203,365.66667 V 367 v 1.33333 l 0.66667,-0.66666 L 204.33333,367 Z M 209,366.41667 v -1.58334 l -1.1875,0.39584 -1.1875,0.39583 -0.39583,1.1875 L 205.83333,368 H 207.41667 209 Z m 5,0.0833 V 365 h -1.5 -1.5 v 1.5 1.5 h 1.5 1.5 z m 6,0 V 365 h -2 -2 v 1.5 1.5 h 2 2 z m 5,0 V 365 h -1.5 -1.5 v 1.5 1.5 h 1.5 1.5 z m 5.75047,0.25 -0.4162,-1.25 -1.66714,-0.32332 L 227,364.85335 V 366.42668 368 h 2.08333 2.08334 z m 4.02036,0.0625 -0.39583,-1.1875 -1.1875,-0.39583 L 232,364.83333 V 366.41667 368 h 1.58333 1.58334 z M 237.66667,366.3333 237,365.66667 V 367 v 1.33333 l 0.66667,-0.66666 L 238.33333,367 Z m -33,-4 L 204,361.66667 V 363 v 1.33333 l 0.66667,-0.66666 L 205.33333,363 Z M 238,363.55902 v -0.44099 L 237,362.5 236,361.88197 V 362.94098 364 h 1 1 z M 209,362 v -1 h -1 -1 v 1 1 h 1 1 z m 5,-0.58333 v -1.58334 l -1.1875,0.39584 -1.1875,0.39583 -0.39583,1.1875 L 210.83333,363 H 212.41667 214 Z m 6,0.0833 V 360 h -2 -2 v 1.5 1.5 h 2 2 z m 5,0 V 360 h -1.5 -1.5 v 1.5 1.5 h 1.5 1.5 z m 5,0 V 360 h -1.5 -1.5 v 1.5 1.5 h 1.5 1.5 z m 4,0.5 v -1 h -1 -1 v 1 1 h 1 1 z m -24,-4 v -1 h -0.44098 -0.44099 l -0.61803,1 -0.61803,1 H 208.94098 210 Z m 23,0.55902 V 358.118 l -1,-0.618 -1,-0.61803 V 357.94098 359 h 1 1 z M 215,357 v -1 h -0.94098 -0.94099 l -0.61803,1 -0.61803,1 H 213.44098 215 Z m 5,-0.5 V 355 h -1.5 -1.5 v 1.5 1.5 h 1.5 1.5 z m 4.36163,0 -0.57561,-1.5 H 222.89301 222 v 1.5 1.5 h 1.46862 1.46861 z M 229,357 v -1 h -1.5 -1.5 v 1 1 h 1.5 1.5 z m -13.5,-4 0.61803,-1 H 215.05902 214 v 1 1 h 0.44098 0.44099 z m 12.5,0.55902 v -0.44099 L 227,352.5 226,351.88197 V 352.94098 354 h 1 1 z M 220,352 v -1 h -1 -1 v 1 1 h 1 1 z m 4,0.55902 v -0.44099 L 223,351.5 222,350.88197 V 351.94098 353 h 1 1 z M 249,386.5 V 384 h 8.56574 8.56574 l 1.93426,-1.03518 L 270,381.92963 v -2.7905 -2.7905 l -2.25,-2.06574 -2.25,-2.06573 -6.17788,-3.08657 -6.17788,-3.08657 -1.57212,-2.24451 L 250,361.55499 v -3.34324 -3.34323 l 1.08049,-2.01892 1.08049,-2.01892 3.38739,-1.41534 L 258.93576,348 H 266.46788 274 v 2.5 2.5 h -8.3 -8.3 l -1.2,1.2 -1.2,1.2 v 2.12569 2.12568 l 2.25,2.05788 2.25,2.05788 5.83955,2.82255 5.83954,2.82254 1.91046,2.42875 1.91045,2.42875 v 3.93088 3.93088 l -1.08049,2.01892 -1.08049,2.01892 -3.38739,1.41534 L 266.06424,389 H 257.53212 249 Z m 31,-13.54966 v -16.04966 l 1.44889,-2.80184 1.44889,-2.80184 2.3706,-1.55328 2.37061,-1.55328 2.4305,-0.20591 2.43051,-0.20591 2.67327,0.11069 2.67328,0.11069 3.05866,2.5737 3.05867,2.57369 1.16649,3.89339 1.16648,3.8934 -1.73926,4.5542 -1.73927,4.55421 -2.8595,1.47871 -2.8595,1.4787 H 292.04966 287 v -1.86995 -1.86995 l 4.717,-0.53167 4.71701,-0.53167 2.28299,-2.65415 2.283,-2.65414 v -2.52116 -2.52116 L 298.07692,354.92308 295.15385,352 h -2.62238 -2.62238 l -2.45454,2.45455 L 285,356.90909 V 372.95455 389 H 282.5 280 Z M 310,368.5 V 348 h 2.5 2.5 v 8.5 8.5 h 9.5 9.5 v -8.5 -8.5 h 2.5 2.5 v 20.5 20.5 h -2.46247 -2.46248 L 333.78753,379.75 333.5,370.5 324.25,370.21247 315,369.92495 V 379.46247 389 h -2.5 -2.5 z m 47.88507,19.12038 -3.61493,-1.29183 -3.04924,-2.17126 -3.04924,-2.17125 -2.202,-4.5487 -2.20199,-4.54871 0.42344,-5.85388 0.42343,-5.85389 2.69384,-4.07067 2.69385,-4.07068 4.12649,-2.10518 4.12649,-2.10518 5.37239,-0.55448 L 369,347.72019 V 350.3601 353 l -3.75,0.022 -3.75,0.022 -4.09546,1.85996 -4.09547,1.85996 -2.15453,3.48611 L 349,363.73607 V 364.36803 365 h 10 10 v 2.5 2.5 h -10.10841 -10.10841 l 0.65361,2.60416 0.6536,2.60416 1.60756,2.45344 1.60756,2.45345 3.80741,1.9424 3.8074,1.94239 H 364.96016 369 v 2.5 2.5 l -3.75,-0.0439 -3.75,-0.0439 z M 375,372.95034 v -16.04966 l 1.44889,-2.80184 1.44889,-2.80184 2.64311,-1.73183 2.64311,-1.73184 h 4.31803 4.31803 l 2.33997,1.20038 2.33997,1.20037 1.72776,2.13296 1.72777,2.13296 0.0222,4.75 0.0222,4.75 -1.97727,1.97727 -1.97728,1.97728 2.47728,2.47727 L 401,372.90909 V 380.95455 389 h -2.5 -2.5 v -7 -7 l -2,-2 -2,-2 h -4.5 -4.5 v -2.5 -2.5 h 3.77749 3.7775 l 2.2225,-1.5567 2.22251,-1.55671 -0.0153,-3.19329 -0.0153,-3.1933 -0.73468,-1.1003 -0.73469,-1.10029 -2.30865,-1.21628 -2.30865,-1.21628 -2.94011,0.64576 -2.94011,0.64575 -1.50124,2.14333 L 380,357.44501 V 373.22251 389 h -2.5 -2.5 z m 44.88507,14.67004 -3.61493,-1.29183 -3.04924,-2.17126 -3.04924,-2.17125 -2.202,-4.5487 -2.20199,-4.54871 0.42344,-5.85388 0.42343,-5.85389 2.69384,-4.07067 2.69385,-4.07068 4.12649,-2.10518 4.12649,-2.10518 5.37239,-0.55448 L 431,347.72019 V 350.3601 353 l -3.75,0.022 -3.75,0.022 -4.09546,1.85996 -4.09547,1.85996 -2.15453,3.48611 L 411,363.73607 V 364.36803 365 h 10 10 v 2.5 2.5 h -10.10841 -10.10841 l 0.65361,2.60416 0.6536,2.60416 1.60756,2.45344 1.60756,2.45345 3.80741,1.9424 3.8074,1.94239 H 426.96016 431 v 2.5 2.5 l -3.75,-0.0439 -3.75,-0.0439 z M 82,342 v -1 H 259.5 437 v 1 1 H 259.5 82 Z m 95.05815,-10.1045 -7.44185,-0.87946 -7.5488,-2.07098 -7.5488,-2.07098 -7.45365,-2.98459 -7.45365,-2.98458 -7.69844,-4.57936 -7.69844,-4.57937 -2.85726,-2.33712 -2.85726,-2.33713 35.27988,-0.036 35.27987,-0.036 -0.27987,12.75 -0.27988,12.75 -2,0.13748 -2,0.13748 z M 194,216.5 V 100 l 3.75,0.008 3.75,0.008 6.5,1.03035 6.5,1.03036 1.75,0.52948 1.75,0.52948 v 113.3242 113.3242 l -2.28297,0.57299 -2.28296,0.57299 -8.96704,1.02722 -8.96703,1.02721 -0.75,0.008 L 194,333 Z m 118,-0.35147 V 100 h 1.92764 1.92764 l 7.82236,1.05143 7.82236,1.05144 1.75,0.51595 1.75,0.51596 V 216.44239 329.75 l -3.25,0.67101 -3.25,0.67102 -8.25,0.60252 -8.25,0.60251 z M 223,216.5 V 105 h 1.34345 1.34345 l 5.42903,1.86786 5.42902,1.86786 5.22753,2.64898 5.22752,2.64899 v 102.37303 102.37303 l -4.75,2.24117 -4.75,2.24118 -6.27283,2.36895 L 224.95434,328 H 223.97717 223 Z m 118,0 V 105 h 0.97717 0.97717 l 6.33975,2.38627 6.33974,2.38628 4.18309,2.13405 4.18308,2.13405 v 102.33164 102.33163 l -6.75,3.1076 -6.75,3.1076 -4.37573,1.54044 L 341.74855,328 H 341.37427 341 Z m -88,0.0352 V 118 h 0.56982 0.56983 l 4.54907,3.12984 4.54907,3.12985 6.88111,6.49128 6.8811,6.49129 v 79.17066 79.17066 l -4.25,4.07471 -4.25,4.07471 -5.73751,4.59164 -5.73751,4.59163 -2.01249,1.07705 L 253,315.07037 Z m 117,0.0287 V 118 h 0.61602 0.61603 l 5.13397,3.719 5.13398,3.71901 6.25,5.9395 6.25,5.9395 v 79.25759 79.25759 l -6.04582,5.47116 -6.04582,5.47115 -5.95418,4.17662 L 370,315.12774 Z M 106.82964,296.25 102.23446,291.5 98.597792,286.64794 94.961125,281.79588 93.945379,279.89794 92.929632,278 H 140.96482 189 V 289.5 301 H 150.21241 111.42482 Z M 282.02224,216.69098 282,143.88197 l 0.93624,0.57863 0.93625,0.57863 4.6006,6.92029 4.60061,6.9203 4.08344,8.81009 4.08344,8.81009 2.82686,11.14742 2.82686,11.14743 0.68189,9.90052 0.68189,9.90051 -1.20253,10.3438 -1.20254,10.3438 -2.48389,8.57139 -2.48389,8.57139 -3.01694,6.87382 -3.01693,6.87382 -4.41123,7.16305 -4.41123,7.16305 -1.99221,2.5 -1.99222,2.5 z M 399.0269,215.75 l 0.0269,-72.25 2.92165,3.5 2.92165,3.5 4.26089,7.41884 4.26088,7.41884 3.32273,8.27537 3.32274,8.27536 2.1444,9.3058 2.1444,9.30579 0.0158,16 0.0158,16 -2.75736,10.79798 -2.75737,10.79798 -2.86399,6.73029 -2.864,6.73029 -3.55557,6.29045 -3.55558,6.29046 -2.76545,3.90992 -2.76546,3.90993 -0.75,0.0214 L 399,288 Z M 86.906597,267.81692 84.772547,263.63383 82.386273,257.29409 80,250.95434 v -1.48578 -1.48578 l 54.25,0.25861 54.25,0.25861 0.28174,11.75 0.28173,11.75 H 139.05206 89.040648 Z M 77.177497,238.75841 76.113329,234.5 75.418733,226.75 74.724137,219 h 57.169663 57.16967 l -0.28173,11.75 -0.28174,11.75 -55.12917,0.25841 -55.129164,0.25841 z m -2.157688,-28.00015 0.01981,-3.25826 1.002208,-7 1.002208,-7 0.545371,-1.75 0.545371,-1.75 h 55.464343 55.46435 L 188.78174,201.75 188.5,213.5 131.75,213.75826 75,214.01651 Z m 5.401058,-29.29899 0.637683,-2.54073 1.976793,-5.20927 1.976793,-5.20927 2.275747,-4 2.275747,-4 H 139.03182 188.5 l 0.28174,11.75 0.28173,11.75 H 134.42333 79.783184 Z M 93,154.37699 v -0.62301 l 4.415373,-6.12699 4.415377,-6.12699 5.06216,-5.25 5.06216,-5.25 H 150.47753 189 v 12 12 H 141 93 Z m 26.49494,-29.36881 0.62909,-1.01789 5.68799,-3.86029 5.68798,-3.8603 8.10507,-4.07314 8.10508,-4.07315 7.89492,-2.53362 7.89493,-2.53362 8.88099,-1.52808 L 181.26198,100 h 3.89889 3.89888 l -0.27987,12.75 -0.27988,12.75 -34.81707,0.26303 -34.81708,0.26304 z"
         id="path81" />
      <path
         style="fill:#464646"
         d="m 86,383 v -6 h 5.940983 5.940983 l 0.594001,-0.96111 0.594002,-0.96112 -3.259789,-2.78888 -3.25979,-2.78889 -2.701683,-2.77706 -2.701684,-2.77706 -0.653881,-2.9771 -0.653881,-2.9771 1.83037,-3.74584 L 89.5,350.5 l 3.5,-1.19356 3.5,-1.19356 7.75,-0.0564 L 112,348 v 5.4501 5.45009 l -5.671,0.29991 -5.67099,0.2999 -0.38377,1.16428 -0.383762,1.16429 4.630272,3.1857 4.63026,3.18571 1.92076,3.15001 1.92075,3.15001 0.004,3.28518 0.004,3.28519 -1.55945,2.38002 -1.55945,2.38003 -3.96079,1.58479 L 101.95953,389 H 93.979764 86 Z m 35,-8.5 V 360 h -3.5 -3.5 v -6 -6 h 13 13 v 6 6 h -3.5 -3.5 v 14.5 14.5 h -6 -6 z m 29,7.06739 v -7.43261 l -1.97391,-0.6265 -1.97392,-0.6265 -2.02608,-2.57575 L 142,367.73028 V 357.86514 348 h 5.95794 5.95793 l 0.29207,7.75 0.29206,7.75 h 2 2 l 0.29206,-7.75 0.29207,-7.75 H 165.04206 171 v 9.92327 9.92328 l -2.58889,3.07672 L 165.82221,374 H 164.41111 163 v 7.5 7.5 h -6.5 -6.5 z m 32.31471,5.96895 -3.18528,-1.38537 -1.56472,-3.02583 L 176,380.09932 V 364.04966 348 h 6 6 v 13.3 13.3 l 1.2,1.2 1.2,1.2 h 4.3 4.3 v 6 6 l -6.75,-0.0391 -6.75,-0.0391 z m 33.44933,0.50588 -2.73595,-0.86174 -3.46364,-2.14065 -3.46364,-2.14064 -2.3004,-3.6996 L 201.5,375.5 v -6.5 -6.5 l 2.33703,-3.75885 2.33703,-3.75885 4.16297,-2.39311 4.16297,-2.39311 3.16632,-0.65912 3.16632,-0.65911 4.33368,1.15325 4.33368,1.15326 3.25923,2.46575 3.25923,2.46575 1.99077,3.90223 1.99077,3.90223 v 5.0895 5.0895 l -1.61697,3.20034 -1.61698,3.20034 -2.13302,2.34501 -2.13303,2.34502 -2.51317,1.3082 -2.51318,1.3082 -4.48682,0.54876 -4.48683,0.54876 z M 220,386 v -1 h -1.55902 -1.55901 l 0.61803,1 0.61803,1 H 219.05902 220 Z m 4,0 v -1 h -1.5 -1.5 v 1 1 h 1.5 1.5 z m -8,-0.44098 v -0.44099 L 215,384.5 214,383.88197 V 384.94098 386 h 1 1 z M 228,385 v -1 h -1 -1 v 1 1 h 1 1 z m -8,-3.5 V 380 h -1.96862 -1.96861 l 0.5756,1.5 0.57561,1.5 H 218.60699 220 Z m 4.75047,-0.25 0.4162,-1.25 H 223.08333 221 v 1.57332 1.57333 l 1.66713,-0.32333 1.66714,-0.32332 z M 215,381 v -1 h -1.5 -1.5 v 1 1 h 1.5 1.5 z m 14,0 v -1 h -1.5 -1.5 v 1 1 h 1.5 1.5 z m -19,-1 v -1 h -1.05902 -1.05901 l 0.61803,1 0.61803,1 H 209.55902 210 Z m 23,0 v -1 h -1 -1 v 1 1 h 1 1 z m -27,-1.5 V 378 h -0.5 -0.5 v 0.5 0.5 h 0.5 0.5 z m 8.36163,-2 -0.57561,-1.5 H 212.39301 211 v 0.83333 0.83334 l 0.66667,0.66666 0.66666,0.66667 h 1.30195 1.30195 z M 220,376.5 V 375 h -2 -2 v 1.5 1.5 h 2 2 z m 5,0 V 375 h -2 -2 v 1.5 1.5 h 2 2 z m 5,0 V 375 h -1.5 -1.5 v 1.5 1.5 h 1.5 1.5 z m -20.63837,-1 -0.57561,-1.5 H 207.89301 207 v 1.5 1.5 h 1.46862 1.46861 z M 234,375.5 V 374 h -1 -1 v 1.5 1.5 h 1 1 z M 204.66667,374.33333 204,373.66667 V 375 v 1.33333 l 0.66667,-0.66666 L 205.33333,375 Z M 238,375 v -1 h -1 -1 v 1 1 h 1 1 z m -29,-3.5 V 370 h -1.5 -1.5 v 0.83333 0.83334 l 0.66667,0.66666 L 207.33333,373 H 208.16667 209 Z m 5,0 V 370 h -1.5 -1.5 v 1.5 1.5 h 1.5 1.5 z m 6,0 V 370 h -2 -2 v 1.5 1.5 h 2 2 z m 5.5,0 v -1 l -2.25,-0.31955 -2.25,-0.31955 v 1.6391 1.6391 l 2.25,-0.31955 2.25,-0.31955 z m 5.5,0 V 370 h -2 -2 v 1.5 1.5 h 2 2 z m 4,0 V 370 h -1.5 -1.5 v 1.5 1.5 h 1.5 1.5 z M 205,371 v -1 h -1 -1 v 1 1 h 1 1 z m 33.5,0 0.61803,-1 H 238.05902 237 v 1 1 h 0.44098 0.44099 z M 205,367 v -1 h -1 -1 v 1 1 h 1 1 z m 4,-0.58333 v -1.58334 l -1.1875,0.39584 -1.1875,0.39583 -0.39583,1.1875 L 205.83333,368 H 207.41667 209 Z m 5,0.0833 V 365 h -1.5 -1.5 v 1.5 1.5 h 1.5 1.5 z m 6,0 V 365 h -2 -2 v 1.5 1.5 h 2 2 z m 5.36163,0 -0.57561,-1.5 H 222.89301 221 v 1.5 1.5 h 2.46862 2.46861 z M 231,366.5 V 365 h -2 -2 v 1.5 1.5 h 2 2 z m 4,0 V 365 h -1.5 -1.5 v 1.5 1.5 h 1.5 1.5 z m 4,1.05902 v -0.44099 L 238,366.5 237,365.88197 V 366.94098 368 h 1 1 z M 204.66667,362.33333 204,361.66667 V 363 v 1.33333 l 0.66667,-0.66666 L 205.33333,363 Z M 209,362.5 210.24489,361 H 208.62244 207 v 1.5 1.5 h 0.37756 0.37755 z m 24.60417,-1.22917 -0.60417,-0.60416 -0.60014,0.60013 -0.60013,0.60014 0.78322,1.26727 0.78322,1.26728 0.42108,-1.26324 0.42108,-1.26325 z M 238,363.55902 v -0.44099 L 237,362.5 236,361.88197 V 362.94098 364 h 1 1 z m -24,-2.14235 v -1.58334 l -1.1875,0.39584 -1.1875,0.39583 -0.39583,1.1875 L 210.83333,363 H 212.41667 214 Z m 6,0.0833 V 360 h -2 -2 v 1.5 1.5 h 2 2 z m 5,0 V 360 h -2 -2 v 0.83333 0.83334 l 0.66667,0.66666 L 222.33333,363 H 223.66667 225 Z m 5,0 V 360 h -1.5 -1.5 v 1.5 1.5 h 1.5 1.5 z m -24,-2 V 359 h -0.5 -0.5 v 0.5 0.5 h 0.5 0.5 z m 4,-1.5 v -1 h -0.44098 -0.44099 l -0.61803,1 -0.61803,1 H 208.94098 210 Z m 23,0 v -1 h -1 -1 v 1 1 h 1 1 z m -18,-1 v -1 h -1.5 -1.5 v 1 1 h 1.5 1.5 z m 5,-0.5 V 355 h -1.5 -1.5 v 1.5 1.5 h 1.5 1.5 z m 4.75,0.25 -0.41667,-1.25 H 223 221.66667 L 221.25,356.75 220.83333,358 H 223 225.16667 Z M 229,357 v -1 h -1.5 -1.5 v 1 1 h 1.5 1.5 z m -18,-2.5 V 354 h -0.5 -0.5 v 0.5 0.5 h 0.5 0.5 z m 20,0 V 354 h -0.5 -0.5 v 0.5 0.5 h 0.5 0.5 z m -15.5,-1.5 0.61803,-1 H 215.05902 214 v 1 1 h 0.44098 0.44099 z m 12.5,0.55902 v -0.44099 L 227,352.5 226,351.88197 V 352.94098 354 h 1 1 z M 220,352 v -1 h -0.94098 -0.94099 l -0.61803,1 -0.61803,1 H 218.44098 220 Z m 4,0 v -1 h -1.5 -1.5 v 1 1 h 1.5 1.5 z m 26,34.67378 v -2.59873 l 9.2232,-0.28752 9.2232,-0.28753 1.19109,-2.39458 1.1911,-2.39457 -0.74549,-2.10543 -0.74549,-2.10542 -6.90239,-3.66963 -6.9024,-3.66962 -2.76641,-3.09615 L 250,360.96845 v -2.43717 -2.43717 l 1.07116,-2.35095 1.07117,-2.35095 2.17883,-1.37685 2.17884,-1.37685 8.25,-0.44465 8.25,-0.44466 V 350.3746 353 h -7.87756 -7.87755 l -1.1947,1.43953 -1.19471,1.43953 0.32226,2.81047 0.32226,2.81047 6.98359,3.66963 6.98359,3.66962 2.76641,3.09615 2.76641,3.09615 v 3.46845 3.46845 l -2.81023,3.14519 -2.81024,3.1452 -9.68976,0.50684 L 250,389.27252 Z m 30.18415,-14.753 0.31585,-17.07923 3.73531,-3.42077 3.73532,-3.42078 4.26468,0.004 4.26469,0.004 3.18618,1.94275 3.18618,1.94275 0.96201,1.80351 0.96202,1.80351 0.2125,2.5 0.21249,2.5 -0.11069,2.85 -0.11069,2.85 -3.4,3.4 -3.4,3.4 h -5.6 -5.6 v -1.87277 -1.87277 l 5.07467,-0.48761 5.07467,-0.48761 1.50203,-1.50204 1.50204,-1.50203 0.54477,-4.06157 0.54477,-4.06156 -2.57602,-2.57602 L 296.09091,352 h -2.98969 -2.98969 l -2.80577,2.41108 -2.80576,2.41109 -0.31881,16.08891 L 283.86238,389 h -1.99704 -1.99704 z M 310,368.5 V 348 h 2.5 2.5 v 9 9 h 9.5 9.5 v -9 -9 h 2 2 v 20.5 20.5 h -2 -2 v -9.5 -9.5 h -9.5 -9.5 v 9.5 9.5 h -2.5 -2.5 z m 50.05783,19.40977 -4.44216,-0.87109 -3.55784,-2.82731 -3.55783,-2.8273 -2.25,-4.40393 -2.25,-4.40392 v -3.82023 -3.82023 l 1.55068,-3.71788 1.55068,-3.71788 3.17205,-3.2774 3.17204,-3.2774 4.95878,-1.4726 L 363.363,348 H 366.1815 369 v 2.5 2.5 h -4.03212 -4.03212 l -3.21788,1.37112 -3.21788,1.37112 -2.17587,2.37888 -2.17587,2.37888 -0.68254,2.75 -0.68254,2.75 H 358.89159 369 v 2 2 h -10 -10 l 0.004,1.75 0.004,1.75 1.98712,3.25914 1.98712,3.25914 3.25914,1.98712 3.25914,1.98712 4.75,0.004 L 369,384 v 2.5 2.5 l -2.25,-0.10957 -2.25,-0.10956 z M 375.18415,371.92078 375.5,354.84155 379.23531,351.42078 382.97063,348 h 5.11468 5.11469 l 3.4,3.4 3.4,3.4 v 3.96514 3.96514 l -2.08745,2.65376 -2.08744,2.65376 2.33735,1.89267 2.33735,1.89267 0.35271,8.58843 L 401.20523,389 H 398.60262 396 v -7.34501 -7.34501 L 394.17126,372.65499 392.34252,371 H 387.67126 383 v -2.5 -2.5 h 4.04545 4.04546 l 2.55032,-2.55032 2.55033,-2.55033 -0.63842,-2.69967 -0.63842,-2.69968 -2.06815,-1.75 -2.06814,-1.75 h -2.75436 -2.75435 l -2.63486,2.07258 L 380,356.14516 V 372.57258 389 h -2.56585 -2.56585 z m 46.87368,15.98899 -4.44216,-0.87109 -3.55784,-2.82731 -3.55783,-2.8273 -2.25,-4.40393 -2.25,-4.40392 v -3.82023 -3.82023 l 1.55068,-3.71788 1.55068,-3.71788 3.17205,-3.2774 3.17204,-3.2774 4.95878,-1.4726 L 425.363,348 H 428.1815 431 v 2.5 2.5 h -4.03212 -4.03212 l -3.21788,1.37112 -3.21788,1.37112 -2.17587,2.37888 -2.17587,2.37888 -0.68254,2.75 -0.68254,2.75 H 420.89159 431 v 2 2 h -10 -10 l 0.004,1.75 0.004,1.75 1.98712,3.25914 1.98712,3.25914 3.25914,1.98712 3.25914,1.98712 4.75,0.004 L 431,384 v 2.5 2.5 l -2.25,-0.10957 -2.25,-0.10956 z M 82,342 v -1 h 177 177 v 1 1 H 259 82 Z m 97,-10.26706 -8.5,-0.76707 -9.37042,-2.49126 -9.37043,-2.49127 -8.62957,-4.03741 -8.62958,-4.03741 -7.93963,-5.20426 -7.93963,-5.20426 34.34299,-0.26331 34.34299,-0.26331 0.37753,0.37754 0.37753,0.37753 -0.28089,12.38577 L 187.5,332.5 Z m 15.46331,0.39703 L 194,331.66667 V 215.83333 100 h 2.42764 2.42764 l 7.82236,1.05143 7.82236,1.05144 1.75,0.51595 1.75,0.51596 V 216.09214 329.0495 l -2.39886,0.91205 -2.39887,0.91204 -9.13783,0.85985 -9.13783,0.85984 z M 312,216.11828 V 100 h 0.42764 0.42764 l 7.82236,1.01239 7.82236,1.01239 3.25427,0.53372 3.25426,0.53373 -0.25426,113.13197 -0.25427,113.13197 -2.73216,0.73066 -2.73215,0.73066 -8.51785,0.70953 L 312,332.23655 Z M 224,216.5 V 105 h 0.97717 0.97717 l 6.33975,2.38627 6.33974,2.38628 4.18309,2.13405 4.18308,2.13405 v 102.33164 102.33163 l -6.75,3.1076 -6.75,3.1076 -4.37573,1.54044 L 224.74855,328 H 224.37427 224 Z m 117,-0.0251 V 105 h 0.37427 0.37428 l 4.37572,1.54044 4.37573,1.54044 6.75469,3.10976 6.7547,3.10976 -0.2547,102.0438 -0.25469,102.04379 -3,1.74497 -3,1.74498 -8.25,3.03588 -8.25,3.03587 z m -88,0.038 v -98.58323 l 1.89794,1.01575 1.89794,1.01574 4.85206,3.63667 4.85206,3.63667 4.75,4.59518 4.75,4.59518 v 80.24077 80.24078 l -6.84975,5.8954 -6.84975,5.8954 -4.65025,3.19946 L 253,315.09608 Z m 117,0.008 v -98.7173 l 3.08425,1.95281 3.08425,1.9528 4.16048,3.3954 4.16047,3.39539 4.25528,3.87736 4.25527,3.87736 v 79.98777 79.98777 l -3.75,3.48092 -3.75,3.48092 -4,3.2388 -4,3.2388 -3.75,2.78384 -3.75,2.78384 z M 107.3721,296.75 103.32779,292.5 99.803522,288 96.279255,283.5 94.524617,280.75 92.76998,278 H 140.38499 188 v 11.5 11.5 h -38.29179 -38.29179 z m 174.66386,-80.94098 0.036,-72.30902 2.33713,2.85726 2.33712,2.85726 4.70133,7.90348 4.70133,7.90348 2.42077,5.95755 2.42077,5.95756 2.49241,8.60077 2.49241,8.60078 1.15444,11.38709 1.15445,11.3871 -1.16633,10.36504 -1.16632,10.36505 -2.51394,9.39378 -2.51394,9.39377 -4.33801,9.15762 -4.33801,9.15762 -4.11891,6.06538 -4.11892,6.06538 -1.00486,0.62103 L 282,288.11803 Z M 400,216.5 V 146 h 0.40619 0.4062 l 3.59997,5.0109 3.59998,5.01091 3.47312,6.81502 3.47312,6.81502 2.4776,6.58237 2.4776,6.58238 1.58866,6.8417 1.58865,6.8417 0.92298,9.66728 0.92298,9.66728 -0.95042,10.81756 -0.95041,10.81756 -2.6467,9.51516 -2.6467,9.51516 -3.83503,8.3108 -3.83503,8.31079 -4.61318,6.93921 L 400.84641,287 H 400.4232 400 Z M 86.453254,266.3096 83.761266,260.61921 81.880633,255.15305 80,249.6869 V 248.84345 248 h 54 54 v 12 12 H 138.57262 89.145242 Z M 77.134283,237.75 76.12677,232.5 75.483791,225.75 74.840812,219 H 131.42041 188 v 12 12 H 133.0709 78.141796 Z m -1.677315,-31 0.653343,-6.25 1.015742,-5.25 1.015743,-5.25 H 133.0709 188 V 201.5 213 H 131.40181 74.803626 Z M 80,183.02283 v -0.97717 l 2.386273,-6.33975 2.386274,-6.33974 2.13405,-4.18309 L 89.040648,161 H 138.52032 188 V 172.5 184 H 134 80 Z m 13,-28.63885 v -0.61603 l 3.719004,-5.13397 3.719006,-5.13398 5.9395,-6.25 5.9395,-6.25 H 150.15851 188 v 12 12 H 140.5 93 Z m 27,-29.80718 v -0.42321 l 6.75,-4.46002 6.75,-4.46002 6.27749,-3.14505 6.27749,-3.14504 8.91903,-2.98815 8.91903,-2.98815 9.80348,-1.47769 9.80348,-1.47768 2.25,-0.006 L 188,100 v 12.5 12.5 h -34 -34 z"
         id="path80" />
      <path
         style="fill:#2f2f2f"
         d="m 86,383.74311 v -5.49545 l 5.535191,-0.45902 5.535191,-0.45902 1.101742,-1.10174 1.101742,-1.10175 -6.136933,-5.8397 L 87,363.44672 v -4.2891 -4.2891 l 0.970827,-1.81401 0.970826,-1.814 4.04941,-1.62026 L 97.040473,348 H 104.52024 112 v 5.4501 5.45009 l -5.671,0.29991 -5.67099,0.2999 -0.37953,1.15158 -0.379533,1.15158 4.592263,3.29791 4.59225,3.29791 1.95827,3.16854 1.95827,3.16855 v 2.58491 2.58491 l -1.08521,2.38179 -1.08521,2.38178 -3.16479,1.87551 -3.16479,1.87551 -9.25,0.40904 -9.25,0.40904 z M 120.77673,374.25 120.5,359.5 117.25,359.18664 114,358.87328 V 353.43664 348 h 13 13 v 5.43664 5.43664 l -3.25,0.31336 -3.25,0.31336 -0.27673,14.75 -0.27674,14.75 H 127 121.05347 Z m 29.21695,7.5 -0.006,-7.25 -3.00271,-1.70868 -3.00272,-1.70868 -0.99096,-2.60642 L 142,365.8698 V 356.9349 348 h 5.95794 5.95793 l 0.29207,7.75 0.29206,7.75 h 2 2 l 0.29206,-7.75 0.29207,-7.75 H 165.04206 171 v 9.86514 9.86514 l -2.02609,2.57575 -2.02608,2.57575 -1.97392,0.6265 L 163,374.13478 V 381.56739 389 h -6.5 -6.5 z m 32.32103,5.78634 -3.18528,-1.38537 -1.56472,-3.02583 L 176,380.09932 V 364.04966 348 h 5.97254 5.97255 l 0.27745,14.25 0.27746,14.25 5.25,0.89064 5.25,0.89065 V 383.64064 389 l -6.75,-0.0391 -6.75,-0.0391 z M 211.5,386.1293 l -3,-1.86323 -2.20227,-2.39668 -2.20227,-2.39668 -1.54773,-3.70424 L 201,372.06424 V 369 365.93576 l 1.55068,-3.71788 1.55068,-3.71788 3.17205,-3.2774 3.17204,-3.2774 4.88884,-1.45183 4.88885,-1.45183 4.49078,1.0064 4.49077,1.0064 3.34732,2.55313 3.34732,2.55312 2.05033,4.23543 2.05034,4.23543 v 4.21639 4.2164 l -1.53814,3.68128 -1.53814,3.68128 -1.71186,1.89301 -1.71186,1.89301 -3.71016,1.89359 L 226.07968,388 220.28984,387.996 214.5,387.992 Z m 8.5,-0.0703 v -0.94099 l -1.06653,-0.65915 -1.06653,-0.65915 -0.53361,0.5336 -0.5336,0.53361 0.65915,1.06653 L 218.11803,387 H 219.05902 220 Z m 4,-0.64235 v -1.58334 l -1.1875,0.39584 -1.1875,0.39583 -0.39583,1.1875 L 220.83333,387 H 222.41667 224 Z M 216,385 v -1 h -1.55902 -1.55901 l 0.61803,1 0.61803,1 H 215.05902 216 Z m 12,0 v -1 h -0.94098 -0.94099 l -0.61803,1 -0.61803,1 H 226.44098 228 Z m -17,-1.5 V 383 h -0.5 -0.5 v 0.5 0.5 h 0.5 0.5 z m 20,0 V 383 h -0.5 -0.5 v 0.5 0.5 h 0.5 0.5 z M 214.65492,380.54313 214.06277,379 H 213.03138 212 v 1.41667 1.41666 l 1.25,0.44643 1.25,0.44643 0.37354,-0.31997 0.37354,-0.31996 z M 220,381.5 V 380 h -2 -2 v 0.83333 0.83334 l 0.66667,0.66666 L 217.33333,383 H 218.66667 220 Z m 5,0 V 380 h -2 -2 v 1.5 1.5 h 2 2 z m 4,-1.0756 v -1.36163 l -1.5,0.5756 -1.5,0.57561 v 1.36162 1.36163 l 1.5,-0.5756 1.5,-0.57561 z M 210,380 v -1 h -1.05902 -1.05901 l 0.61803,1 0.61803,1 H 209.55902 210 Z m 23,0 v -1 h -1 -1 v 1 1 h 1 1 z m -27,-1.5 V 378 h -0.5 -0.5 v 0.5 0.5 h 0.5 0.5 z m 14,-1.5 v -2 h -2 -2 v 1.33333 1.33334 l 0.66667,0.66666 L 217.33333,379 H 218.66667 220 Z m 4.82332,-0.33287 L 225.14665,375 H 223.07332 221 v 1.33333 1.33334 l 0.6875,0.6875 0.6875,0.6875 1.0625,-0.3537 1.0625,-0.3537 z M 236,378.5 V 378 h -0.5 -0.5 v 0.5 0.5 h 0.5 0.5 z m -21,-2 V 375 h -2 -2 v 1.5 1.5 h 2 2 z m 15.36163,0 0.5756,-1.5 H 228.96862 227 v 1.5 1.5 h 1.39301 1.39301 z m -20.5908,-0.6875 -0.39583,-1.1875 -1.1875,-0.39583 L 207,373.83333 V 375.41667 377 h 1.58333 1.58334 z m 25,-0.625 L 235.16667,374 H 233.58333 232 v 1.58333 1.58334 l 1.1875,-0.39584 1.1875,-0.39583 z M 205,375 v -1 h -1.05902 -1.05901 l 0.61803,1 0.61803,1 H 204.55902 205 Z m 33,0 v -1 h -1 -1 v 1 1 h 1 1 z M 219.82332,371.66713 220.14665,370 H 218.07332 216 v 1.33333 1.33334 l 0.6875,0.6875 0.6875,0.6875 1.0625,-0.3537 1.0625,-0.3537 z m 5.98852,0.0714 L 226.14665,370 H 223.57332 221 v 1.33333 1.33334 l 0.70124,0.70123 0.70123,0.70124 1.53728,-0.29605 1.53728,-0.29606 z M 209,371.5 V 370 h -1.5 -1.5 v 1.5 1.5 h 1.5 1.5 z m 5,0 V 370 h -1.5 -1.5 v 1.5 1.5 h 1.5 1.5 z m 17,0 V 370 h -2 -2 v 1.5 1.5 h 2 2 z m 4,0 V 370 h -1.5 -1.5 v 1.5 1.5 h 1.5 1.5 z M 205,371 v -1 h -1.55902 -1.55901 l 0.61803,1 0.61803,1 H 204.05902 205 Z m 34,0 v -1 h -1 -1 v 1 1 h 1 1 z m -34,-4 v -1 h -0.94098 -0.94099 l -0.61803,1 -0.61803,1 H 203.44098 205 Z m 4,-0.5 V 365 h -1.5 -1.5 v 1.5 1.5 h 1.5 1.5 z m 5,0 V 365 h -1.5 -1.5 v 1.5 1.5 h 1.5 1.5 z m 6,0.16667 v -1.33334 l -0.59777,-0.59776 -0.59776,-0.59777 -1.40224,0.53809 L 216,365.21398 V 366.60699 368 h 2 2 z m 6,-0.0597 v -1.39301 l -1.59024,-0.61024 -1.59024,-0.61023 -0.90976,0.56226 L 221,365.11803 V 366.55902 368 h 2.5 2.5 z M 231,366.5 V 365 h -2 -2 v 1.5 1.5 h 2 2 z m 4,0 V 365 h -1.5 -1.5 v 1.5 1.5 h 1.5 1.5 z m 4,0.5 v -1 h -1 -1 v 1 1 h 1 1 z m -34,-4 v -1 h -0.44098 -0.44099 l -0.61803,1 -0.61803,1 H 203.94098 205 Z m 4.77083,-0.8125 L 210.16667,361 H 208.58333 207 v 1.58333 1.58334 l 1.1875,-0.39584 1.1875,-0.39583 z m 25,0.625 -0.39583,-1.1875 -1.1875,-0.39583 L 232,360.83333 V 362.41667 364 h 1.58333 1.58334 z M 238,363 v -1 h -1 -1 v 1 1 h 1 1 z m -23,-1.5 V 360 h -2 -2 v 1.5 1.5 h 2 2 z m 5,0 V 360 h -2 -2 v 1.5 1.5 h 2 2 z m 5,0 V 360 h -2 -2 v 1.5 1.5 h 2 2 z m 5.36163,0 -0.57561,-1.5 H 228.39301 227 v 1.5 1.5 h 1.96862 1.96861 z M 206,359.5 V 359 h -0.5 -0.5 v 0.5 0.5 h 0.5 0.5 z m 30,0 V 359 h -0.5 -0.5 v 0.5 0.5 h 0.5 0.5 z m -25.5,-1.5 0.61803,-1 h -1 -1 l -0.61803,1 -0.61803,1 h 1 1 z m 4.5,-1.5756 v -1.36163 l -1.5,0.5756 -1.5,0.57561 v 1.36162 1.36163 l 1.5,-0.5756 1.5,-0.57561 z m 13.65492,0.11873 L 228.06277,355 H 227.03138 226 v 1.41667 1.41666 l 1.25,0.44643 1.25,0.44643 0.37354,-0.31997 0.37354,-0.31996 z M 233,358 v -1 h -1 -1 v 1 1 h 1 1 z m -13,-1.57332 v -1.57333 l -1.66713,0.32333 -1.66714,0.32332 -0.4162,1.25 -0.4162,1.25 H 217.91667 220 Z m 4.75047,0.32332 -0.4162,-1.25 -1.66714,-0.32332 L 221,354.85335 V 356.42668 358 h 2.08333 2.08334 z M 211,354.5 V 354 h -0.5 -0.5 v 0.5 0.5 h 0.5 0.5 z m 20,0 V 354 h -0.5 -0.5 v 0.5 0.5 h 0.5 0.5 z M 216,353 v -1 h -0.94098 -0.94099 l -0.61803,1 -0.61803,1 H 214.44098 216 Z m 3.8125,-0.9375 0.4375,-1.3125 -1.3125,0.4375 -1.3125,0.4375 -0.4375,1.3125 -0.4375,1.3125 1.3125,-0.4375 1.3125,-0.4375 z M 224,352.5 V 351 h -1.5 -1.5 v 0.83333 0.83334 l 0.66667,0.66666 L 222.33333,354 H 223.16667 224 Z m 4,0.5 v -1 h -1.55902 -1.55901 l 0.61803,1 0.61803,1 H 227.05902 228 Z M 82,342 v -1 h 177 177 v 1 1 H 259 82 Z m 92.5,-10.71426 -3,-0.41459 -7.59095,-1.8618 -7.59094,-1.86179 -8.05113,-3.10485 -8.05114,-3.10484 -8.35792,-5.01251 L 123.5,310.91285 121.52778,308.95643 119.55556,307 H 153.77778 188 v 12.5 12.5 l -5.25,-0.14983 -5.25,-0.14983 z M 194,216.14348 V 100 l 1.75,0.0309 1.75,0.0309 7.5,0.95906 7.5,0.95906 2.75426,0.59046 2.75427,0.59045 -0.25427,113.09769 -0.25426,113.0977 -3,0.80361 -3,0.80362 -8.75,0.66178 -8.75,0.66178 z m 30,0.30266 V 105 h 0.34345 0.34345 l 5.43997,1.87162 5.43996,1.87163 5.71659,2.61482 5.71658,2.61482 v 102.37699 102.37699 l -5.97885,2.68315 -5.97885,2.68315 -5.52115,1.89955 L 224,327.89228 Z m 29,0.0575 v -98.7337 l 2.75,1.7793 2.75,1.77931 4.5,3.5285 4.5,3.52851 4.25,4.01541 4.25,4.01541 v 79.6878 79.68781 l -5.25,5.03304 -5.25,5.03305 -2.5,1.88744 -2.5,1.88744 -3.75,2.80219 -3.75,2.80219 z M 105.19823,294.15025 99.30283,287.3005 96.103374,282.65025 92.903919,278 H 140.45196 188 V 289.5 301 H 149.54681 111.09363 Z M 282.03596,216.62756 282,144.75511 l 1.60147,1.3291 1.60146,1.3291 3.56442,5.54334 3.56441,5.54335 4.30668,9.05777 4.30668,9.05777 2.48055,9.44223 2.48055,9.44223 1.11636,10.42518 1.11635,10.42519 -1.12314,10.57481 -1.12313,10.57482 -1.49103,6 -1.49103,6 -3.43929,9 -3.43929,9 -4.45496,7.5 -4.45495,7.5 -2.52509,3 -2.52509,3 z M 86.188476,265.25 83.080875,258.5 81.540438,254.12427 80,249.74855 V 249.37427 249 h 54 54 V 260.5 272 H 138.64804 89.296077 Z m -9.067164,-28.5 -1.020484,-5.25 -0.300414,-6 -0.300414,-6 56.25,-0.25833 56.25,-0.25832 V 230.49167 242 H 133.0709 78.141796 Z m -1.720075,-28 0.523783,-4.25 0.609253,-5 0.609253,-5 0.536645,-2.25 0.536645,-2.25 H 133.10841 188 V 201.5 213 H 131.43873 74.877454 Z M 80,183.65655 v -0.34345 l 1.880388,-5.40655 1.880387,-5.40655 2.564584,-5.75 2.564583,-5.75 H 138.44497 188 V 172.5 184 H 134 80 Z M 94.517325,152.25 l 1.747345,-2.75 2.57575,-3.5 2.57575,-3.5 5.44414,-5.75 5.44413,-5.75 H 150.15222 188 v 12 12 H 140.38499 92.76998 Z M 120.55,124.10253 l 0.95,-0.89746 6.5,-4.17531 6.5,-4.1753 7.07567,-3.41315 7.07566,-3.41316 6.18459,-1.97573 6.18458,-1.97574 7.23975,-1.43732 7.23975,-1.43731 6.25,-0.65068 6.25,-0.650683 V 112.45034 125 h -34.2 -34.2 z"
         id="path79" />
      <path
         style="fill:#000000"
         d="M 86,383.5 V 378 h 4.918213 4.918212 L 97.418213,377.39301 99,376.78602 v -1.04353 -1.04353 l -6,-5.62148 -6,-5.62149 v -4.55368 -4.55368 l 2.339872,-2.1982 2.339872,-2.19819 3.403526,-0.97612 L 98.486796,348 H 104.7434 111 v 5.5 5.5 h -4.94098 -4.94099 l -0.64798,1.04846 -0.647989,1.04847 6.588969,6.21127 6.58897,6.21128 v 3.66353 3.66354 l -2.52339,2.99888 -2.52339,2.99887 -5.02583,1.07785 L 97.901558,389 H 91.950779 86 Z m 35,-9.5 v -15 h -3.5 -3.5 v -5.5 -5.5 h 13 13 v 5.5 5.5 h -3.5 -3.5 v 15 15 h -6 -6 z m 30,7.60841 v -7.39159 l -2.53102,-0.63525 -2.53102,-0.63524 -1.96524,-3.22317 -1.96524,-3.22316 -0.004,-9.25 L 142,348 h 6 6 v 8 8 h 2.5 2.5 v -8 -8 h 6 6 v 9.04966 9.04966 l -1.51693,2.93341 -1.51692,2.93342 -2.98308,1.5426 L 162,375.05136 V 382.02568 389 h -5.5 -5.5 z m 34,6.73952 -1.5,-0.49417 -2.20475,-1.07165 -2.20476,-1.07164 -1.54524,-3.25636 L 176,379.19774 V 363.59887 348 h 6 6 v 14.02475 14.02475 l 2.5651,0.97525 L 193.1302,378 H 196.0651 199 v 5.5 5.5 l -6.25,-0.079 -6.25,-0.0789 z m 24.82774,-3.6843 -4.32774,-3.33637 0.13235,-1.62442 0.13236,-1.62441 -1.0383,0.21079 -1.03829,0.21078 -1.51963,-4.75 -1.51963,-4.75 1.51963,-4.75 1.51963,-4.75 1.23027,0.27478 1.23027,0.27477 -0.67229,-1.08779 -0.67229,-1.08779 1.84796,-2.04339 1.84796,-2.0434 3.71016,-1.89359 L 215.92032,350 h 4.72412 4.72411 l 4.06573,2.00248 4.06572,2.00247 3,4.24753 3,4.24752 -0.023,6.5 -0.023,6.5 -2.46813,3.68292 -2.46813,3.68292 -3.95903,2.56708 L 226.59966,388 h -6.22209 -6.22209 z M 216,385.5 V 384 h -1.5 -1.5 v 0.91667 0.91666 l 1.25,0.50439 1.25,0.50439 0.25,0.0789 L 216,387 Z m 4,0 V 384 h -1.5 -1.5 v 1.5 1.5 h 1.5 1.5 z m 4,0 V 384 h -1.5 -1.5 v 1.5 1.5 h 1.5 1.5 z m 4,-0.55902 V 384 h -1.5 -1.5 v 0.83333 0.83334 l 0.63948,0.63948 0.63948,0.63948 0.86052,-0.53183 L 228,385.88197 Z M 212,384 v -1 h -1.05902 -1.05901 l 0.61803,1 0.61803,1 H 211.55902 212 Z M 230.66667,383.33333 230,382.66667 V 384 v 1.33333 l 0.66667,-0.66666 L 231.33333,384 Z M 215,381 v -2 h -1.5 -1.5 v 1.41667 1.41666 l 1.25,0.50439 1.25,0.50439 0.25,0.0789 L 215,383 Z m 5,0.5 V 380 h -2 -2 v 1.5 1.5 h 2 2 z m 5,0 V 380 h -2 -2 v 1.5 1.5 h 2 2 z m 4.04779,-0.5893 1.11817,-2.08931 -1.8215,0.35079 -1.82149,0.35079 -0.33481,1.73851 L 225.85335,383 h 1.03814 1.03814 z M 211,381.05902 v -0.94099 l -1.00367,-0.6203 -1.00367,-0.6203 0.61208,-2.43872 L 210.21682,374 H 208.10841 206 v 0.51357 0.51357 l 0.927,1.73643 0.927,1.73643 0.54162,1.75 0.54161,1.75 H 209.96862 211 Z m 21.72186,-0.18088 1.12185,-1.12185 -0.49003,-1.27699 -0.49003,-1.277 1.06818,-0.66017 L 235,375.88197 V 374.94098 374 h -1.41667 -1.41666 l -0.33334,0.93011 -0.33333,0.93012 -1.94113,-1.43012 L 227.61774,373 h 1.76445 1.76446 l -0.33481,-1.73852 -0.33481,-1.73851 -1.6336,-0.31461 -1.63359,-0.3146 -0.36831,4.6308 -0.3683,4.63079 2.76339,-0.55267 L 232,377.05 v 0.91598 0.91599 l -1,0.61803 -1,0.61803 V 381.05902 382 h 0.8 0.8 z M 220,377 v -2 h -2 -2 v 2 2 h 2 2 z m 5,1.58179 v -0.41822 l 0.60699,-1.58178 L 226.21398,375 H 223.60699 221 v 2 2 h 2 2 z M 236,378.5 V 378 h -0.5 -0.5 v 0.5 0.5 h 0.5 0.5 z m -21.18816,-2.23852 -0.33481,-1.73851 -1.73851,-0.33481 L 211,373.85335 V 375.92668 378 h 2.07332 2.07333 z M 205,375 v -1 h -1.05902 -1.05901 l 0.61803,1 0.61803,1 H 204.55902 205 Z m 33,0 v -1 h -1 -1 v 1 1 h 1 1 z m -18,-3.40964 v -2.40965 l -4.5,0.068 -4.5,0.068 v 1.77519 1.7752 l 2.75,0.41659 2.75,0.41659 1.75,0.14983 L 220,374 Z m 5.5,-0.0904 v -2 h -2 -2 l -0.33004,2.33004 -0.33004,2.33004 2.33004,-0.33004 2.33004,-0.33 z m -20.5,0.059 v -1.44099 l -0.9309,-0.57532 -0.9309,-0.57533 -0.62812,1.01631 -0.62811,1.01631 0.61803,1 0.61803,1 H 204.05902 205 Z m 4.81184,-0.29754 -0.33481,-1.73851 -1.73851,-0.33481 L 206,368.85335 V 370.92668 373 h 2.07332 2.07333 z M 235.5,371 v -1.47261 l -1.75,-0.33702 -1.75,-0.33702 V 371 v 2.14665 l 1.75,-0.33702 1.75,-0.33702 z m 2.7,-1.2 -1.2,-1.2 v 2.4 2.4 l 1.2,-1.2 1.2,-1.2 z M 205,367 v -1 h -1.5 -1.5 v 1 1 h 1.5 1.5 z m 5,-0.5 V 365 h -2 -2 v 1.5 1.5 h 2 2 z m 10,-0.5 v -2 h -2 -2 v 1.2 1.2 l -1.2,-1.2 -1.2,-1.2 h -1.3 -1.3 v 2 2 h 4.5 4.5 z m 5.81311,0.25 -0.33354,-1.75 -2.23979,-0.31955 L 221,363.8609 V 365.93045 368 h 2.57332 2.57333 z m 4.99873,0.0115 -0.33481,-1.73851 -1.73851,-0.33481 L 227,363.85335 V 365.92668 368 h 2.07332 2.07333 z m 4.93863,0.48852 -0.4162,-1.25 -1.66714,-0.32332 L 232,364.85335 V 366.42668 368 h 2.08333 2.08334 z M 239,367 v -1 h -1 -1 v 1 1 h 1 1 z m -34,-4 v -1 h -0.44098 -0.44099 l -0.61803,1 -0.61803,1 H 203.94098 205 Z m 4.53721,-1.51908 0.0372,-1.98331 0.7718,-1.24881 0.7718,-1.2488 h -1.67564 -1.67565 l 0.50612,1.93542 0.50612,1.93541 -1.38949,0.5332 -1.38949,0.5332 v 1.10471 1.10471 l 1.75,-0.3412 1.75,-0.34121 z M 235,363.05902 v -0.94099 l -1.25,-0.78258 -1.25,-0.78259 -1,-0.12411 -1,-0.12412 -1.5,-0.16763 -1.5,-0.16763 1.3607,-0.86211 1.3607,-0.86212 2.04567,0.53495 2.04567,0.53496 -0.76923,-1.24464 -0.76923,-1.24465 -1.82256,0.47661 -1.82255,0.47661 -0.5332,-1.38949 L 228.06277,355 h -1.13979 -1.1398 l 0.61208,2.43871 0.61208,2.43872 -1.00367,0.6203 -1.00367,0.6203 -0.11515,-1.30901 -0.11516,-1.30902 0.17801,-1.75 0.17802,-1.75 H 223.06286 221 v 1.5 1.5 l 1.25,0.079 1.25,0.0789 -1.25,0.50439 -1.25,0.50439 v 1.94288 1.94288 l 5.5,-0.30259 5.5,-0.30259 V 363.22362 364 h 1.5 1.5 z M 238,363 v -1 h -1 -1 v 1 1 h 1 1 z m -23,-1.5 V 360 h -2 -2 v 1.5 1.5 h 2 2 z m 5,-0.5 v -2 l -1.25,-0.079 -1.25,-0.0789 1.25,-0.50439 1.25,-0.50439 V 356.41667 355 h -1.88212 -1.88211 l -0.0552,4 -0.0552,4 H 218.06268 220 Z m 16,-1.5 V 359 h -0.5 -0.5 v 0.5 0.5 h 0.5 0.5 z m -21,-2.58333 v -2.08334 l -1.25,0.4162 -1.25,0.4162 -0.32332,1.66714 L 211.85335,359 H 213.42668 215 Z M 211.66667,354.33333 211,353.66667 210.33333,354.33333 209.66667,355 H 211 h 1.33333 z m 19,-1 L 230,352.66667 V 354 v 1.33333 l 0.66667,-0.66666 L 231.33333,354 Z M 216,353 v -1 h -1.5 -1.5 v 1 1 h 1.5 1.5 z m 4,-0.5 V 351 h -1.5 -1.5 v 1.5 1.5 h 1.5 1.5 z m 4,0 V 351 h -1.5 -1.5 v 1.5 1.5 h 1.5 1.5 z m 4,0.5 v -1 h -1.5 -1.5 v 1 1 h 1.5 1.5 z M 82,342 v -1 h 177 177 v 1 1 H 259 82 Z m 92,-10.99823 -5.5,-0.736 -4.5,-1.19864 -4.5,-1.19863 -6,-2.04509 -6,-2.04509 -8,-3.94864 -8,-3.94863 -5.21934,-3.58563 -5.21934,-3.58562 0.52836,-0.8549 0.52835,-0.8549 h 31.3592 31.3592 l 1.58178,0.60699 L 188,308.21398 V 320.10699 332 l -4.25,-0.13112 -4.25,-0.13111 z m 21,-114.943 V 99.909374 l 3.25,0.501326 3.25,0.50133 5,0.58186 5,0.58186 2.75426,0.54252 2.75427,0.54251 -0.25427,113.09769 -0.25426,113.0977 -2.65165,0.70913 -2.65164,0.70913 -8.09836,0.71686 L 195,332.20816 Z m 29,0.32426 V 105 h 0.26412 0.26411 l 4.98589,1.82693 4.98588,1.82693 6.25,2.80964 6.25,2.80963 v 101.9285 101.92851 l -7.28418,3.36549 -7.28417,3.3655 -4.21583,1.45247 L 224,327.76607 Z m 29,-0.40421 v -98.14916 l 5.25,3.79166 5.25,3.79167 6.25,5.41562 6.25,5.41563 v 79.79696 79.79697 l -7.6532,6.98288 -7.6532,6.98287 -3.8468,2.16203 L 253,314.12797 Z M 105.87113,294.18997 99.5,287.37995 96.187864,282.68997 92.875729,278 H 140.43786 188 V 289.5 301 H 150.12113 112.24226 Z M 283.02224,216.25 l 0.0222,-70.75 2.00638,2.5 2.00638,2.5 4.1679,7 4.16789,7 2.80224,6.65618 2.80224,6.65617 2.72888,9.84383 2.72888,9.84382 -0.005,18.5 -0.005,18.5 -1.81915,7 -1.81914,7 -2.39889,6.79674 -2.39889,6.79674 -2.83043,5.70326 -2.83043,5.70326 -4.26385,6.75 -4.26385,6.75 H 283.41036 283 Z m -193.774813,54.5 -0.997463,-1.25 -1.503875,-3 -1.503874,-3 -2.59961,-7.25 L 80.042996,249 H 134.0215 188 V 260.5 272 H 139.12244 90.244889 Z m -11.66043,-32 L 76.923994,235.5 76.31378,227.75 75.703565,220 H 131.85178 188 v 11 11 H 133.125 78.25 Z M 76.395221,203.96331 77.0774,194.92662 78.013949,192.46331 78.950498,190 H 133.47525 188 V 201.5 213 H 131.85652 75.713041 Z M 80.49716,182.25 l 0.711138,-1.75 0.840316,-2.79976 0.840316,-2.79976 3.203573,-6.95024 L 89.296077,161 H 138.64804 188 V 172.5 184 H 133.89301 79.786022 Z m 15.167424,-31.25933 1.777656,-3.00933 6.80462,-7.99067 L 111.05148,132 H 149.52574 188 v 11 11 H 140.94346 93.886928 Z M 121,124.53726 v -0.46274 l 6.12739,-4.16103 6.1274,-4.16103 9.1226,-4.3051 9.12261,-4.3051 9,-2.47886 9,-2.47887 6.5,-0.64487 6.5,-0.64488 2.75,-0.52684 2.75,-0.526851 V 112.42054 125 H 154.5 121 Z"
         id="path78" />
    </g>
  </g>
</svg>
